<svg xmlns="http://www.w3.org/2000/svg" xmlns:xlink="http://www.w3.org/1999/xlink" width="800" zoomAndPan="magnify" viewBox="0 0 600 599.999999" height="800" preserveAspectRatio="xMidYMid meet" version="1.0"><path fill="#ffffff" d="M 22.75 126.203125 C 22.636719 126.207031 21.171875 126.933594 19.496094 127.820312 L 16.4375 129.429688 L 17.71875 131.886719 C 18.421875 133.242188 56.90625 207.789062 103.242188 297.554688 C 149.574219 387.320312 187.519531 460.796875 187.5625 460.84375 C 187.605469 460.886719 189 460.238281 190.664062 459.402344 C 192.328125 458.570312 193.746094 457.796875 193.816406 457.683594 C 193.886719 457.570312 161.277344 394.191406 121.355469 316.84375 C 81.425781 239.488281 48.035156 174.796875 47.144531 173.085938 C 46.253906 171.367188 45.59375 170.027344 45.675781 170.101562 C 45.757812 170.175781 80.46875 233.394531 122.800781 310.582031 C 165.132812 387.769531 199.839844 450.988281 199.917969 451.054688 C 199.996094 451.128906 201.417969 450.429688 203.078125 449.503906 C 204.738281 448.578125 206.085938 447.707031 206.074219 447.5625 C 206.070312 447.417969 174.269531 389.359375 135.414062 318.519531 C 96.5625 247.660156 64.664062 189.492188 64.535156 189.246094 C 64.402344 188.996094 64.332031 188.792969 64.378906 188.792969 C 64.421875 188.792969 97.683594 245.582031 138.292969 314.984375 C 178.902344 384.390625 212.210938 441.175781 212.308594 441.175781 C 212.410156 441.175781 213.835938 440.394531 215.480469 439.4375 C 217.125 438.480469 218.4375 437.644531 218.398438 437.578125 C 218.359375 437.507812 187.917969 385.464844 150.746094 321.925781 C 113.574219 258.394531 83.023438 206.183594 82.859375 205.90625 C 82.6875 205.628906 82.644531 205.492188 82.765625 205.601562 C 82.882812 205.714844 114.746094 256.476562 153.574219 318.410156 C 192.402344 380.34375 224.234375 431.089844 224.3125 431.179688 C 224.394531 431.269531 225.796875 430.5 227.4375 429.46875 C 229.074219 428.441406 230.414062 427.523438 230.40625 427.429688 C 230.402344 427.339844 201.339844 380.933594 165.816406 324.304688 C 130.300781 267.667969 101.160156 221.1875 101.0625 221.011719 C 100.941406 220.796875 100.949219 220.757812 101.085938 220.890625 C 101.199219 221 131.785156 266.21875 169.058594 321.371094 C 206.328125 376.523438 236.90625 421.648438 237.011719 421.648438 C 237.117188 421.648438 238.414062 420.839844 239.894531 419.847656 C 241.378906 418.855469 242.648438 417.949219 242.722656 417.832031 C 242.792969 417.71875 215.839844 377.660156 182.832031 328.820312 C 149.820312 279.960938 122.039062 238.867188 121.101562 237.484375 C 120.160156 236.097656 119.527344 235.101562 119.703125 235.269531 C 119.871094 235.433594 149.011719 275.125 184.453125 323.472656 C 219.898438 371.816406 248.960938 411.371094 249.046875 411.371094 C 249.128906 411.371094 250.410156 410.476562 251.898438 409.386719 C 253.382812 408.292969 254.589844 407.273438 254.578125 407.121094 C 254.570312 406.976562 228.992188 371.972656 197.746094 329.367188 C 166.496094 286.75 140.433594 251.199219 139.828125 250.367188 C 139.21875 249.535156 138.90625 249.039062 139.125 249.261719 C 139.347656 249.484375 166.046875 282.765625 198.460938 323.226562 C 230.875 363.683594 258.175781 397.753906 259.136719 398.933594 L 260.882812 401.078125 L 263.628906 398.878906 C 265.136719 397.667969 266.371094 396.609375 266.371094 396.527344 C 266.371094 396.445312 248.878906 374.554688 227.5 347.878906 C 206.121094 321.199219 181.703125 290.738281 173.238281 280.167969 C 164.773438 269.597656 158.167969 261.261719 158.558594 261.652344 C 158.949219 262.039062 184.917969 291.382812 216.269531 326.859375 C 247.621094 362.335938 273.351562 391.394531 273.445312 391.429688 C 273.539062 391.464844 274.789062 390.472656 276.21875 389.21875 C 277.652344 387.964844 278.828125 386.890625 278.839844 386.835938 C 278.847656 386.777344 257.230469 362.269531 230.804688 332.375 C 204.375 302.476562 181.449219 276.519531 179.855469 274.707031 L 176.957031 271.40625 L 181.085938 275.53125 C 183.359375 277.796875 207.707031 302.480469 235.203125 330.375 C 262.695312 358.269531 285.277344 381.117188 285.394531 381.144531 C 285.507812 381.175781 286.714844 380.078125 288.082031 378.710938 L 290.566406 376.21875 L 246.75 331.765625 C 222.644531 307.332031 201.332031 285.683594 199.378906 283.695312 C 197.429688 281.710938 196.242188 280.445312 196.742188 280.882812 C 197.238281 281.320312 220.015625 301.730469 247.355469 326.238281 C 274.699219 350.742188 297.300781 371.011719 297.59375 371.273438 L 298.117188 371.757812 L 300.496094 369.109375 C 302.234375 367.179688 302.828125 366.394531 302.691406 366.199219 C 302.589844 366.054688 284.386719 349.726562 262.25 329.890625 C 240.109375 310.054688 221.640625 293.460938 221.199219 293.03125 C 220.640625 292.488281 220.5 292.25 220.730469 292.25 C 220.914062 292.25 223.539062 294.175781 226.5625 296.535156 L 232.0625 300.816406 L 232.125 301.488281 L 232.191406 302.160156 L 232.851562 302.050781 L 233.511719 301.945312 L 239.328125 306.460938 C 242.878906 309.21875 245.21875 311.167969 245.332031 311.472656 C 245.457031 311.792969 245.679688 311.972656 245.957031 311.972656 C 246.222656 311.972656 248.683594 313.75 252.109375 316.410156 C 255.253906 318.847656 257.957031 321.058594 258.117188 321.324219 C 258.28125 321.585938 258.597656 321.839844 258.820312 321.882812 C 259.046875 321.925781 261.707031 323.886719 264.730469 326.246094 C 268.746094 329.375 270.3125 330.710938 270.558594 331.222656 C 270.816406 331.765625 270.980469 331.898438 271.308594 331.816406 C 271.625 331.734375 273.097656 332.777344 277.472656 336.179688 C 280.632812 338.640625 283.527344 340.898438 283.90625 341.195312 C 284.28125 341.492188 286.945312 343.5625 289.824219 345.792969 C 293.515625 348.65625 295.257812 350.136719 295.742188 350.828125 C 296.277344 351.589844 296.496094 351.765625 296.753906 351.628906 C 297.007812 351.492188 298.257812 352.367188 302.230469 355.457031 C 306.125 358.484375 307.660156 359.808594 308.53125 360.886719 C 309.316406 361.859375 309.757812 362.253906 309.917969 362.128906 C 310.046875 362.027344 312.894531 359.757812 316.246094 357.078125 C 319.597656 354.398438 322.496094 352.15625 322.6875 352.089844 C 322.875 352.023438 323.257812 351.714844 323.535156 351.402344 C 323.8125 351.09375 332.097656 344.40625 341.949219 336.550781 C 351.800781 328.691406 360.015625 322.125 360.203125 321.957031 C 360.390625 321.789062 363.222656 319.515625 366.488281 316.894531 C 369.757812 314.28125 372.550781 312.175781 372.6875 312.226562 C 372.828125 312.273438 373.035156 312.105469 373.144531 311.855469 C 373.257812 311.605469 375.90625 309.355469 379.027344 306.855469 C 382.15625 304.355469 384.882812 302.3125 385.09375 302.3125 C 385.304688 302.3125 385.523438 302.140625 385.574219 301.933594 C 385.628906 301.722656 389.332031 298.628906 393.800781 295.0625 C 398.269531 291.492188 402.066406 288.46875 402.238281 288.347656 C 402.410156 288.222656 402.066406 288.578125 401.480469 289.128906 C 400.890625 289.683594 381.855469 307.296875 359.183594 328.273438 L 317.957031 366.414062 L 319.789062 368.390625 C 320.796875 369.480469 321.894531 370.6875 322.230469 371.074219 L 322.835938 371.78125 L 372.949219 325.445312 C 400.507812 299.964844 422.734375 279.464844 422.332031 279.890625 C 421.933594 280.324219 403.597656 299.601562 381.585938 322.738281 C 359.578125 345.875 338.992188 367.5 335.851562 370.792969 C 331.035156 375.839844 330.175781 376.832031 330.382812 377.082031 C 330.519531 377.25 331.699219 378.382812 333 379.597656 L 335.367188 381.8125 L 386.660156 327.925781 C 414.871094 298.285156 438.707031 273.265625 439.636719 272.324219 L 441.316406 270.613281 L 439.804688 272.425781 C 438.972656 273.421875 416.734375 299.59375 390.390625 330.585938 L 342.488281 386.933594 L 343.226562 387.5625 C 343.632812 387.90625 344.875 388.964844 345.988281 389.910156 L 348.011719 391.628906 L 403.890625 325.886719 C 434.628906 289.730469 460.027344 259.875 460.339844 259.535156 C 460.648438 259.195312 460.796875 259.0625 460.671875 259.230469 C 460.546875 259.40625 436.796875 290.367188 407.890625 328.039062 C 378.984375 365.710938 355.339844 396.597656 355.339844 396.671875 C 355.339844 396.746094 355.632812 397.039062 355.992188 397.320312 C 356.351562 397.601562 357.613281 398.578125 358.792969 399.484375 L 360.941406 401.136719 L 419.652344 324.605469 C 451.945312 282.515625 478.503906 247.9375 478.671875 247.777344 C 478.835938 247.609375 478.472656 248.199219 477.863281 249.085938 C 477.25 249.96875 452.191406 285.820312 422.171875 328.757812 C 392.15625 371.691406 367.621094 406.839844 367.65625 406.863281 C 367.6875 406.886719 369.023438 407.828125 370.625 408.949219 C 372.226562 410.066406 373.546875 410.964844 373.566406 410.941406 C 373.585938 410.921875 401.425781 371.09375 435.433594 322.441406 C 469.441406 273.792969 497.363281 233.898438 497.484375 233.785156 C 497.605469 233.675781 497.535156 233.855469 497.328125 234.1875 C 497.121094 234.519531 470.644531 275.769531 438.492188 325.851562 C 406.339844 375.933594 380.027344 417.027344 380.011719 417.175781 C 380.003906 417.324219 381.304688 418.296875 382.910156 419.335938 C 384.515625 420.375 385.882812 421.164062 385.949219 421.09375 C 386.015625 421.019531 415.074219 375.765625 450.523438 320.53125 C 485.972656 265.296875 515.074219 220.011719 515.191406 219.898438 C 515.3125 219.789062 515.226562 220.015625 515.007812 220.402344 C 514.789062 220.792969 487.140625 267.421875 453.566406 324.023438 C 403.058594 409.1875 392.578125 426.984375 392.800781 427.195312 C 392.949219 427.332031 394.332031 428.1875 395.867188 429.089844 C 397.410156 429.992188 398.691406 430.703125 398.71875 430.675781 C 398.746094 430.644531 428.953125 379.722656 465.839844 317.511719 C 502.726562 255.300781 533 204.3125 533.109375 204.203125 C 533.242188 204.066406 533.273438 204.066406 533.203125 204.203125 C 533.144531 204.3125 504.238281 256.78125 468.960938 320.804688 C 433.683594 384.828125 404.851562 437.230469 404.886719 437.253906 C 404.917969 437.28125 406.285156 438.042969 407.921875 438.945312 C 409.558594 439.847656 410.976562 440.582031 411.070312 440.582031 C 411.160156 440.582031 442.734375 383.410156 481.230469 313.535156 C 519.726562 243.65625 551.3125 186.394531 551.414062 186.289062 C 551.523438 186.175781 551.109375 187.082031 550.5 188.300781 C 549.890625 189.519531 519.628906 248.386719 483.253906 319.113281 C 446.882812 389.84375 417.121094 447.769531 417.121094 447.835938 C 417.121094 447.90625 418.546875 448.695312 420.292969 449.589844 L 423.460938 451.222656 L 496.71875 308.757812 C 537.011719 230.402344 569.996094 166.3125 570.023438 166.339844 C 570.050781 166.367188 538.464844 231.9375 499.835938 312.058594 C 461.207031 392.179688 429.640625 457.796875 429.691406 457.871094 C 429.742188 457.949219 431.191406 458.679688 432.910156 459.492188 C 434.632812 460.304688 436.074219 460.933594 436.113281 460.886719 C 436.152344 460.84375 472.074219 386.359375 515.9375 295.367188 C 559.800781 204.378906 595.734375 129.816406 595.789062 129.675781 C 595.855469 129.511719 594.796875 128.902344 592.738281 127.914062 C 591 127.085938 589.519531 126.410156 589.441406 126.414062 C 589.367188 126.417969 587.941406 129.261719 586.28125 132.730469 L 583.261719 139.039062 L 580.445312 137.609375 C 578.894531 136.820312 577.570312 136.148438 577.496094 136.113281 C 577.425781 136.078125 575.898438 138.929688 574.097656 142.449219 C 572.300781 145.96875 570.808594 148.875 570.785156 148.90625 C 570.761719 148.9375 570.117188 148.613281 569.355469 148.1875 C 568.589844 147.757812 567.371094 147.082031 566.640625 146.679688 L 565.3125 145.945312 L 561.96875 152.03125 C 560.128906 155.375 558.5 158.277344 558.351562 158.480469 L 558.078125 158.855469 L 556.785156 158.066406 C 556.074219 157.632812 554.976562 156.988281 554.351562 156.632812 L 553.21875 155.988281 L 549.421875 162.425781 C 547.335938 165.964844 545.5625 168.863281 545.480469 168.867188 C 545.402344 168.871094 544.414062 168.285156 543.28125 167.566406 C 542.152344 166.847656 541.160156 166.257812 541.082031 166.257812 C 541.003906 166.257812 539.242188 168.90625 537.167969 172.144531 C 535.09375 175.382812 533.296875 178.144531 533.167969 178.28125 C 532.988281 178.476562 532.527344 178.242188 531.078125 177.214844 C 530.054688 176.492188 529.152344 175.941406 529.070312 175.992188 C 528.988281 176.042969 527.019531 178.808594 524.695312 182.136719 C 522.371094 185.46875 520.417969 188.191406 520.359375 188.191406 C 520.296875 188.195312 519.539062 187.648438 518.667969 186.984375 C 517.796875 186.316406 517.019531 185.835938 516.945312 185.925781 C 516.871094 186.011719 514.746094 188.777344 512.226562 192.070312 C 509.707031 195.363281 507.582031 198.058594 507.507812 198.058594 C 507.433594 198.058594 506.835938 197.605469 506.179688 197.050781 C 505.527344 196.5 504.9375 196.046875 504.871094 196.046875 C 504.804688 196.046875 502.640625 198.53125 500.066406 201.570312 C 497.488281 204.609375 495.246094 207.203125 495.085938 207.339844 C 494.84375 207.539062 494.628906 207.425781 493.882812 206.695312 L 492.980469 205.808594 L 491.023438 207.820312 C 489.945312 208.925781 487.464844 211.507812 485.507812 213.554688 L 481.957031 217.277344 L 480.753906 215.871094 L 480.085938 216.488281 C 479.714844 216.824219 477.554688 218.8125 475.285156 220.902344 C 473.019531 222.988281 470.730469 225.109375 470.207031 225.609375 C 469.460938 226.320312 469.199219 226.464844 469.007812 226.277344 C 468.875 226.144531 468.703125 226.035156 468.628906 226.035156 C 468.554688 226.035156 465.859375 228.140625 462.644531 230.714844 C 458.964844 233.65625 456.621094 235.398438 456.328125 235.40625 C 456.0625 235.414062 450.34375 239.152344 443.03125 244.105469 C 435.972656 248.882812 429.363281 253.277344 428.339844 253.875 C 427.316406 254.46875 421.742188 257.566406 415.949219 260.753906 L 405.414062 266.550781 L 393.214844 271.761719 L 381.011719 276.96875 L 357.246094 284.21875 L 346.277344 286.226562 C 340.246094 287.328125 334.902344 288.320312 334.402344 288.425781 C 333.90625 288.535156 327.566406 288.992188 320.316406 289.445312 L 307.136719 290.308594 L 296.375 289.675781 L 285.605469 289.039062 L 281.074219 288.25 C 278.585938 287.8125 272.871094 286.789062 268.375 285.96875 L 260.199219 284.476562 L 248.085938 280.824219 L 235.976562 277.171875 L 224.269531 272.230469 C 217.832031 269.511719 211.925781 266.96875 211.144531 266.578125 C 210.367188 266.1875 204.792969 263.191406 198.761719 259.933594 C 192.730469 256.667969 187.476562 253.8125 187.089844 253.589844 C 186.703125 253.359375 181.085938 249.6875 174.613281 245.421875 C 168.136719 241.160156 162.523438 237.4375 162.132812 237.152344 C 161.746094 236.867188 158.195312 234.117188 154.238281 231.042969 C 147.917969 226.128906 147.003906 225.484375 146.667969 225.691406 C 146.332031 225.902344 145.632812 225.335938 140.511719 220.738281 L 134.730469 215.550781 L 134.082031 216.179688 L 133.429688 216.808594 L 127.808594 211.175781 L 122.191406 205.542969 L 121.222656 206.496094 C 120.617188 207.09375 120.199219 207.367188 120.109375 207.230469 C 120.03125 207.109375 117.75 204.503906 115.042969 201.441406 C 112.335938 198.382812 110.054688 195.878906 109.976562 195.878906 C 109.898438 195.878906 109.339844 196.332031 108.734375 196.882812 C 108.128906 197.4375 107.550781 197.890625 107.449219 197.890625 C 107.351562 197.890625 105.101562 195.179688 102.449219 191.863281 C 99.792969 188.550781 97.582031 185.832031 97.523438 185.828125 C 97.46875 185.824219 96.746094 186.359375 95.914062 187.023438 C 95.085938 187.683594 94.347656 188.207031 94.273438 188.175781 C 94.203125 188.152344 92.136719 185.386719 89.683594 182.035156 C 86.769531 178.058594 85.140625 175.996094 84.980469 176.089844 C 84.851562 176.171875 84.027344 176.761719 83.148438 177.402344 C 82.269531 178.042969 81.484375 178.570312 81.398438 178.570312 C 81.3125 178.570312 79.378906 175.808594 77.097656 172.433594 L 72.953125 166.292969 L 70.855469 167.703125 C 69.703125 168.476562 68.6875 169.105469 68.597656 169.105469 C 68.511719 169.101562 66.636719 166.203125 64.429688 162.667969 L 60.425781 156.242188 L 59.703125 156.683594 C 59.308594 156.925781 58.222656 157.605469 57.289062 158.183594 C 56.355469 158.769531 55.570312 159.226562 55.546875 159.199219 C 55.519531 159.171875 53.851562 156.34375 51.84375 152.914062 C 49.832031 149.480469 48.121094 146.601562 48.035156 146.515625 C 47.949219 146.425781 46.9375 146.910156 45.785156 147.589844 C 44.632812 148.273438 43.449219 148.953125 43.15625 149.101562 L 42.621094 149.378906 L 39.15625 143.039062 C 37.25 139.554688 35.632812 136.671875 35.5625 136.628906 C 35.492188 136.589844 34.234375 137.226562 32.765625 138.042969 C 31.292969 138.859375 30.027344 139.527344 29.945312 139.527344 C 29.867188 139.527344 28.261719 136.542969 26.378906 132.890625 C 24.5 129.238281 22.867188 126.253906 22.757812 126.253906 Z M 552.472656 184.355469 C 552.527344 184.355469 552.433594 184.628906 552.257812 184.960938 C 552.089844 185.292969 551.902344 185.566406 551.847656 185.566406 C 551.789062 185.566406 551.886719 185.292969 552.058594 184.960938 C 552.230469 184.628906 552.417969 184.355469 552.472656 184.355469 Z M 63.582031 187.375 C 63.632812 187.375 63.820312 187.648438 63.992188 187.980469 C 64.164062 188.3125 64.261719 188.582031 64.203125 188.582031 C 64.148438 188.582031 63.960938 188.3125 63.792969 187.980469 C 63.621094 187.648438 63.523438 187.375 63.582031 187.375 Z M 515.839844 218.773438 C 515.894531 218.773438 515.84375 218.953125 515.722656 219.175781 C 515.605469 219.398438 515.460938 219.578125 515.40625 219.578125 C 515.351562 219.578125 515.402344 219.398438 515.523438 219.175781 C 515.640625 218.953125 515.785156 218.773438 515.839844 218.773438 Z M 157.117188 260.03125 C 157.171875 260.03125 157.378906 260.210938 157.582031 260.433594 C 157.78125 260.65625 157.898438 260.835938 157.84375 260.835938 C 157.789062 260.835938 157.582031 260.65625 157.378906 260.433594 C 157.179688 260.210938 157.0625 260.03125 157.117188 260.03125 Z M 215.921875 288.207031 C 215.964844 288.207031 216.121094 288.367188 216.277344 288.558594 L 216.550781 288.914062 L 216.199219 288.636719 C 216.003906 288.484375 215.847656 288.328125 215.847656 288.285156 C 215.847656 288.242188 215.882812 288.207031 215.921875 288.207031 Z M 218.226562 290.050781 C 219.148438 290.746094 219.941406 291.378906 219.992188 291.457031 C 220.042969 291.535156 220.007812 291.644531 219.925781 291.699219 C 219.835938 291.75 219.042969 291.117188 218.160156 290.289062 L 216.550781 288.78125 Z M 384.375 292.835938 L 384.957031 292.835938 L 383.699219 293.84375 C 382.75 294.605469 382.273438 294.847656 381.761719 294.847656 C 381.386719 294.847656 381.082031 294.804688 381.082031 294.753906 C 381.082031 294.699219 381.691406 294.246094 382.4375 293.746094 C 383.269531 293.191406 384.019531 292.835938 384.375 292.835938 Z M 258.3125 300.492188 C 258.480469 300.492188 259.160156 300.804688 259.824219 301.183594 C 260.609375 301.636719 260.886719 301.882812 260.617188 301.886719 C 260.390625 301.890625 259.710938 301.578125 259.109375 301.195312 C 258.503906 300.808594 258.148438 300.496094 258.3125 300.492188 Z M 358.84375 300.691406 C 359.113281 300.6875 358.902344 300.914062 358.183594 301.398438 C 357.453125 301.890625 357.035156 302.058594 356.820312 301.941406 C 356.582031 301.808594 356.730469 301.648438 357.476562 301.230469 C 358.007812 300.9375 358.621094 300.695312 358.84375 300.691406 Z M 245.328125 301.304688 C 245.953125 301.304688 246.503906 301.5625 248.023438 302.5625 L 249.929688 303.820312 L 249.339844 303.949219 C 249.015625 304.019531 248.605469 304.085938 248.425781 304.097656 C 248.246094 304.113281 247.386719 303.574219 246.511719 302.902344 C 245.640625 302.230469 244.839844 301.59375 244.734375 301.492188 C 244.617188 301.375 244.84375 301.304688 245.328125 301.304688 Z M 372.378906 301.519531 C 373.179688 301.515625 373.832031 301.574219 373.824219 301.65625 C 373.824219 301.738281 373.054688 302.40625 372.125 303.136719 L 370.433594 304.46875 L 369.105469 304.214844 C 368.375 304.078125 367.734375 303.925781 367.6875 303.875 C 367.636719 303.824219 368.34375 303.277344 369.253906 302.65625 L 370.917969 301.53125 Z M 283.21875 305.132812 C 283.523438 305.132812 284.222656 305.347656 284.777344 305.605469 L 285.785156 306.074219 L 285.167969 306.210938 C 284.699219 306.320312 284.328125 306.222656 283.609375 305.824219 C 283.089844 305.535156 282.664062 305.257812 282.664062 305.210938 C 282.664062 305.167969 282.914062 305.132812 283.21875 305.132812 Z M 333.683594 305.164062 C 333.796875 305.167969 334.113281 305.234375 334.390625 305.316406 L 334.890625 305.46875 L 333.949219 305.933594 C 333.171875 306.324219 332.894531 306.367188 332.339844 306.207031 L 331.671875 306.007812 L 332.578125 305.585938 C 333.078125 305.351562 333.574219 305.164062 333.683594 305.164062 Z M 308.546875 306.757812 C 308.78125 306.75 309.269531 306.84375 309.628906 306.96875 L 310.289062 307.199219 L 309.8125 307.464844 C 309.546875 307.609375 309.125 307.734375 308.871094 307.738281 C 308.617188 307.742188 308.117188 307.59375 307.761719 307.40625 L 307.117188 307.070312 L 307.621094 306.925781 C 307.898438 306.84375 308.316406 306.769531 308.546875 306.757812 Z M 270.945312 307.371094 C 271.082031 307.355469 271.972656 307.761719 272.921875 308.273438 C 273.871094 308.789062 274.570312 309.277344 274.480469 309.371094 C 274.386719 309.460938 273.90625 309.640625 273.410156 309.773438 L 272.503906 310.015625 L 270.929688 309.003906 C 270.0625 308.449219 269.355469 307.914062 269.359375 307.816406 C 269.363281 307.722656 269.664062 307.589844 270.03125 307.519531 C 270.394531 307.453125 270.804688 307.382812 270.945312 307.367188 Z M 346.667969 307.582031 C 347.054688 307.59375 347.640625 307.648438 347.96875 307.71875 L 348.566406 307.847656 L 347.566406 308.566406 C 347.019531 308.964844 346.285156 309.480469 345.941406 309.714844 L 345.316406 310.148438 L 344.175781 309.824219 C 343.546875 309.644531 343.058594 309.417969 343.089844 309.316406 C 343.125 309.21875 343.785156 308.785156 344.554688 308.355469 C 345.464844 307.851562 346.214844 307.578125 346.667969 307.582031 Z M 259.144531 309.9375 C 259.433594 310.117188 260.496094 310.804688 261.503906 311.46875 C 262.515625 312.132812 263.339844 312.722656 263.339844 312.777344 C 263.34375 312.832031 262.695312 313.074219 261.902344 313.316406 L 260.464844 313.753906 L 258.171875 311.964844 C 256.164062 310.398438 255.933594 310.160156 256.339844 310.0625 C 256.597656 310 257.214844 309.875 257.710938 309.785156 C 258.40625 309.65625 258.738281 309.695312 259.144531 309.941406 Z M 358.832031 309.78125 C 358.9375 309.769531 359.867188 309.910156 360.898438 310.09375 C 361.925781 310.277344 362.765625 310.480469 362.761719 310.546875 C 362.75 310.613281 361.792969 311.421875 360.628906 312.34375 C 358.722656 313.855469 358.445312 314.011719 357.871094 313.898438 C 357.519531 313.832031 356.5625 313.566406 355.738281 313.316406 L 354.234375 312.851562 L 356.441406 311.324219 C 357.652344 310.488281 358.730469 309.789062 358.832031 309.78125 Z M 297.652344 311.011719 C 298.433594 311.339844 299.144531 311.679688 299.234375 311.761719 C 299.324219 311.847656 298.824219 312.15625 298.125 312.453125 L 296.855469 312.988281 L 295.28125 312.160156 C 294.417969 311.703125 293.753906 311.285156 293.808594 311.230469 C 293.859375 311.175781 294.425781 310.972656 295.066406 310.773438 L 296.234375 310.414062 Z M 321.164062 310.578125 C 321.359375 310.570312 322.058594 310.714844 322.722656 310.898438 C 323.386719 311.082031 323.925781 311.296875 323.925781 311.375 C 323.925781 311.457031 323.289062 311.855469 322.507812 312.265625 L 321.09375 313.007812 L 319.691406 312.460938 C 318.921875 312.15625 318.292969 311.855469 318.292969 311.789062 C 318.292969 311.726562 318.859375 311.429688 319.550781 311.132812 C 320.242188 310.839844 320.964844 310.589844 321.164062 310.578125 Z M 283.71875 314.207031 C 283.800781 314.195312 284.875 314.742188 286.109375 315.421875 L 288.351562 316.65625 L 286.578125 317.414062 L 284.808594 318.167969 L 282.679688 316.753906 C 281.511719 315.972656 280.527344 315.3125 280.488281 315.277344 C 280.453125 315.25 281.128906 315 281.996094 314.726562 C 282.863281 314.453125 283.640625 314.21875 283.71875 314.207031 Z M 333.992188 314.394531 C 334.160156 314.394531 334.882812 314.574219 335.601562 314.796875 C 336.324219 315.019531 337.039062 315.25 337.199219 315.304688 C 337.382812 315.371094 336.707031 315.929688 335.410156 316.796875 L 333.328125 318.179688 L 332.300781 317.769531 C 331.738281 317.539062 330.933594 317.214844 330.519531 317.046875 C 330.105469 316.878906 329.765625 316.6875 329.765625 316.621094 C 329.765625 316.554688 330.652344 316.027344 331.730469 315.449219 C 332.808594 314.871094 333.828125 314.394531 333.992188 314.394531 Z M 308.773438 315.816406 C 308.90625 315.808594 309.851562 316.160156 310.867188 316.601562 C 311.890625 317.042969 312.757812 317.441406 312.800781 317.484375 C 312.84375 317.527344 312.042969 318.027344 311.023438 318.597656 L 309.164062 319.628906 L 307.757812 318.894531 C 306.984375 318.488281 306.097656 318.007812 305.78125 317.832031 C 305.472656 317.652344 305.214844 317.457031 305.214844 317.398438 C 305.210938 317.339844 305.957031 316.964844 306.871094 316.5625 C 307.785156 316.164062 308.640625 315.828125 308.773438 315.816406 Z M 271.238281 318.027344 C 271.3125 318.015625 272.605469 318.808594 274.109375 319.789062 L 276.839844 321.566406 L 274.875 322.402344 C 273.792969 322.867188 272.851562 323.242188 272.78125 323.242188 C 272.714844 323.242188 271.578125 322.40625 270.257812 321.382812 C 268.9375 320.355469 267.816406 319.429688 267.765625 319.324219 C 267.714844 319.21875 268.445312 318.882812 269.386719 318.585938 C 270.328125 318.285156 271.160156 318.035156 271.238281 318.027344 Z M 346.492188 318.207031 C 346.660156 318.199219 347.8125 318.492188 349.058594 318.851562 C 350.300781 319.214844 351.320312 319.570312 351.324219 319.640625 C 351.324219 319.714844 350.226562 320.652344 348.890625 321.726562 L 346.453125 323.679688 L 345.53125 323.324219 C 345.019531 323.132812 343.957031 322.691406 343.171875 322.347656 C 342.382812 322.007812 341.714844 321.648438 341.683594 321.550781 C 341.648438 321.453125 342.652344 320.664062 343.90625 319.796875 C 345.164062 318.933594 346.328125 318.214844 346.492188 318.207031 Z M 298.992188 322.375 C 300.378906 323.101562 301.535156 323.71875 301.566406 323.742188 C 301.597656 323.769531 300.613281 324.347656 299.375 325.03125 L 297.128906 326.277344 L 294.636719 324.625 C 293.265625 323.71875 292.171875 322.949219 292.203125 322.914062 C 292.238281 322.882812 293.210938 322.449219 294.371094 321.953125 L 296.476562 321.050781 Z M 321.535156 321.226562 C 321.703125 321.222656 322.765625 321.605469 323.898438 322.074219 C 325.03125 322.546875 325.960938 322.992188 325.960938 323.058594 C 325.960938 323.128906 324.9375 323.882812 323.6875 324.734375 L 321.40625 326.28125 L 319.078125 325.011719 L 316.75 323.738281 L 318.992188 322.484375 C 320.222656 321.796875 321.371094 321.230469 321.535156 321.226562 Z M 284.015625 326.464844 C 284.136719 326.460938 285.523438 327.300781 287.101562 328.335938 L 289.96875 330.21875 L 287.535156 331.566406 L 285.101562 332.910156 L 282.292969 330.738281 C 280.75 329.546875 279.484375 328.515625 279.480469 328.449219 C 279.476562 328.382812 280.445312 327.914062 281.632812 327.402344 C 282.824219 326.890625 283.894531 326.46875 284.015625 326.464844 Z M 334.414062 326.5625 C 334.582031 326.621094 335.867188 327.140625 337.277344 327.71875 C 338.6875 328.296875 339.816406 328.828125 339.792969 328.902344 C 339.769531 328.976562 338.546875 329.996094 337.078125 331.175781 L 334.40625 333.3125 L 331.492188 331.726562 L 328.574219 330.140625 L 331.34375 328.296875 C 332.925781 327.246094 334.242188 326.5 334.414062 326.5625 Z M 311.261719 329.023438 C 312.417969 329.640625 313.617188 330.292969 313.925781 330.464844 C 314.234375 330.640625 314.484375 330.828125 314.484375 330.886719 C 314.484375 330.9375 313.382812 331.710938 312.042969 332.59375 C 310.703125 333.480469 309.535156 334.234375 309.445312 334.269531 C 309.359375 334.300781 308.101562 333.539062 306.652344 332.574219 C 305.207031 331.609375 304.0625 330.78125 304.109375 330.730469 C 304.160156 330.679688 305.316406 330.023438 306.679688 329.269531 L 309.15625 327.902344 Z M 296.730469 334.726562 C 296.761719 334.71875 298.148438 335.621094 299.816406 336.734375 L 302.839844 338.757812 L 302.074219 339.3125 C 301.652344 339.617188 300.457031 340.4375 299.421875 341.132812 C 297.992188 342.089844 297.449219 342.355469 297.179688 342.226562 C 296.980469 342.132812 295.597656 341.101562 294.101562 339.941406 C 292.609375 338.777344 291.425781 337.78125 291.476562 337.726562 C 291.527344 337.671875 292.71875 336.980469 294.125 336.1875 C 295.527344 335.394531 296.703125 334.738281 296.730469 334.726562 Z M 323.035156 335.394531 C 323.703125 335.761719 325.132812 336.539062 326.210938 337.117188 C 327.292969 337.691406 328.175781 338.191406 328.175781 338.226562 C 328.175781 338.261719 326.863281 339.339844 325.257812 340.628906 L 322.34375 342.964844 L 319.226562 340.898438 C 317.511719 339.765625 316.132812 338.769531 316.15625 338.695312 C 316.179688 338.613281 317.464844 337.6875 319.007812 336.636719 L 321.816406 334.722656 Z M 309.59375 343.25 C 309.730469 343.300781 311.222656 344.265625 312.917969 345.390625 C 314.613281 346.515625 316.074219 347.507812 316.167969 347.59375 C 316.265625 347.679688 315.011719 348.816406 313.382812 350.121094 L 310.425781 352.492188 L 309.992188 352.222656 C 309.753906 352.074219 308.222656 350.914062 306.589844 349.644531 C 304.957031 348.371094 303.621094 347.257812 303.621094 347.171875 C 303.621094 347.085938 304.910156 346.144531 306.484375 345.085938 C 308.058594 344.023438 309.460938 343.195312 309.59375 343.25 Z M 309.59375 343.25 " fill-opacity="1" fill-rule="nonzero"/></svg>