<svg xmlns="http://www.w3.org/2000/svg" xmlns:xlink="http://www.w3.org/1999/xlink" width="800" zoomAndPan="magnify" viewBox="0 0 600 149.999998" height="200" preserveAspectRatio="xMidYMid meet" version="1.0"><path fill="#7229f7" d="M 6.800781 33.394531 C 6.769531 33.394531 6.421875 33.566406 6.023438 33.777344 L 5.292969 34.160156 L 5.59375 34.746094 C 5.769531 35.070312 14.949219 52.851562 25.996094 74.269531 C 37.050781 95.683594 46.101562 113.210938 46.117188 113.21875 C 46.125 113.234375 46.457031 113.074219 46.855469 112.878906 C 47.253906 112.675781 47.59375 112.496094 47.605469 112.464844 C 47.621094 112.441406 39.839844 97.316406 30.324219 78.867188 C 20.796875 60.414062 12.828125 44.988281 12.617188 44.574219 C 12.40625 44.167969 12.246094 43.84375 12.269531 43.867188 C 12.285156 43.882812 20.570312 58.960938 30.667969 77.375 C 40.765625 95.789062 49.042969 110.871094 49.058594 110.886719 C 49.082031 110.898438 49.421875 110.734375 49.8125 110.515625 C 50.210938 110.296875 50.535156 110.085938 50.527344 110.050781 C 50.527344 110.019531 42.941406 96.164062 33.671875 79.273438 C 24.40625 62.363281 16.800781 48.488281 16.769531 48.433594 C 16.730469 48.375 16.71875 48.324219 16.726562 48.324219 C 16.738281 48.324219 24.671875 61.867188 34.363281 78.421875 C 44.046875 94.984375 51.996094 108.53125 52.015625 108.53125 C 52.039062 108.53125 52.378906 108.339844 52.769531 108.117188 C 53.167969 107.882812 53.476562 107.6875 53.46875 107.671875 C 53.460938 107.65625 46.199219 95.242188 37.335938 80.085938 C 28.464844 64.929688 21.179688 52.476562 21.132812 52.410156 C 21.097656 52.339844 21.089844 52.3125 21.113281 52.332031 C 21.140625 52.363281 28.742188 64.472656 38.003906 79.242188 C 47.269531 94.015625 54.859375 106.121094 54.882812 106.144531 C 54.898438 106.167969 55.238281 105.980469 55.628906 105.738281 C 56.019531 105.488281 56.335938 105.269531 56.335938 105.25 C 56.335938 105.226562 49.398438 94.15625 40.925781 80.648438 C 32.453125 67.140625 25.507812 56.050781 25.484375 56.011719 C 25.453125 55.960938 25.453125 55.945312 25.484375 55.984375 C 25.515625 56.003906 32.804688 66.796875 41.699219 79.949219 C 50.59375 93.101562 57.886719 103.871094 57.910156 103.871094 C 57.929688 103.871094 58.246094 103.675781 58.59375 103.441406 C 58.953125 103.203125 59.257812 102.984375 59.269531 102.960938 C 59.285156 102.929688 52.859375 93.375 44.988281 81.726562 C 37.109375 70.070312 30.480469 60.265625 30.261719 59.941406 C 30.035156 59.609375 29.886719 59.367188 29.921875 59.414062 C 29.96875 59.453125 36.914062 68.917969 45.371094 80.453125 C 53.824219 91.980469 60.761719 101.417969 60.785156 101.417969 C 60.796875 101.417969 61.105469 101.207031 61.460938 100.945312 C 61.8125 100.679688 62.101562 100.441406 62.101562 100.402344 C 62.101562 100.371094 55.996094 92.019531 48.539062 81.859375 C 41.089844 71.6875 34.875 63.214844 34.722656 63.011719 C 34.582031 62.816406 34.507812 62.695312 34.558594 62.746094 C 34.613281 62.800781 40.984375 70.738281 48.714844 80.394531 C 56.449219 90.039062 62.957031 98.167969 63.183594 98.453125 L 63.605469 98.964844 L 64.261719 98.4375 C 64.621094 98.152344 64.914062 97.898438 64.914062 97.875 C 64.914062 97.859375 60.738281 92.636719 55.644531 86.269531 C 50.542969 79.914062 44.71875 72.644531 42.695312 70.121094 C 40.675781 67.601562 39.105469 65.605469 39.195312 65.703125 C 39.285156 65.796875 45.484375 72.792969 52.964844 81.257812 C 60.4375 89.726562 66.578125 96.65625 66.601562 96.664062 C 66.621094 96.671875 66.921875 96.4375 67.261719 96.136719 C 67.601562 95.835938 67.886719 95.578125 67.886719 95.5625 C 67.886719 95.550781 62.730469 89.710938 56.425781 82.574219 C 50.128906 75.441406 44.65625 69.25 44.273438 68.820312 L 43.582031 68.03125 L 44.566406 69.015625 C 45.109375 69.558594 50.917969 75.441406 57.480469 82.09375 C 64.035156 88.753906 69.421875 94.203125 69.453125 94.210938 C 69.476562 94.21875 69.769531 93.953125 70.09375 93.628906 L 70.6875 93.035156 L 60.234375 82.433594 C 54.484375 76.601562 49.398438 71.4375 48.933594 70.964844 C 48.464844 70.492188 48.1875 70.191406 48.308594 70.296875 C 48.421875 70.394531 53.851562 75.261719 60.378906 81.109375 C 66.902344 86.957031 72.289062 91.792969 72.363281 91.855469 L 72.484375 91.96875 L 73.054688 91.335938 C 73.46875 90.875 73.605469 90.6875 73.574219 90.644531 C 73.554688 90.613281 69.210938 86.714844 63.929688 81.980469 C 58.644531 77.25 54.246094 73.289062 54.140625 73.191406 C 54.003906 73.058594 53.972656 73.003906 54.027344 73.003906 C 54.070312 73.003906 54.695312 73.464844 55.417969 74.027344 L 56.726562 75.042969 L 56.742188 75.210938 L 56.757812 75.367188 L 56.914062 75.34375 L 57.074219 75.3125 L 58.464844 76.390625 C 59.308594 77.050781 59.867188 77.519531 59.894531 77.585938 C 59.925781 77.667969 59.976562 77.707031 60.046875 77.707031 C 60.105469 77.707031 60.691406 78.128906 61.511719 78.769531 C 62.257812 79.347656 62.90625 79.875 62.941406 79.933594 C 62.980469 80.003906 63.054688 80.0625 63.109375 80.070312 C 63.167969 80.085938 63.800781 80.550781 64.523438 81.117188 C 65.480469 81.859375 65.855469 82.175781 65.914062 82.296875 C 65.976562 82.433594 66.011719 82.464844 66.089844 82.441406 C 66.164062 82.425781 66.515625 82.671875 67.5625 83.488281 C 68.316406 84.074219 69.007812 84.609375 69.097656 84.675781 C 69.1875 84.75 69.820312 85.238281 70.503906 85.773438 C 71.386719 86.457031 71.808594 86.8125 71.921875 86.976562 C 72.046875 87.160156 72.101562 87.203125 72.160156 87.167969 C 72.222656 87.136719 72.523438 87.347656 73.46875 88.078125 C 74.394531 88.800781 74.765625 89.113281 74.96875 89.378906 C 75.15625 89.605469 75.261719 89.703125 75.300781 89.671875 C 75.328125 89.648438 76.015625 89.109375 76.8125 88.46875 C 77.609375 87.828125 78.300781 87.292969 78.347656 87.277344 C 78.390625 87.265625 78.480469 87.1875 78.550781 87.113281 C 78.617188 87.039062 80.589844 85.441406 82.945312 83.570312 C 85.292969 81.695312 87.25 80.128906 87.292969 80.09375 C 87.339844 80.046875 88.015625 79.503906 88.800781 78.882812 C 89.574219 78.257812 90.242188 77.753906 90.273438 77.765625 C 90.3125 77.78125 90.355469 77.738281 90.386719 77.675781 C 90.410156 77.617188 91.042969 77.082031 91.785156 76.488281 C 92.53125 75.894531 93.1875 75.40625 93.230469 75.40625 C 93.285156 75.40625 93.335938 75.359375 93.351562 75.3125 C 93.359375 75.261719 94.246094 74.523438 95.308594 73.675781 C 96.375 72.824219 97.285156 72.101562 97.324219 72.070312 C 97.363281 72.042969 97.28125 72.125 97.144531 72.257812 C 97 72.394531 92.464844 76.59375 87.054688 81.597656 L 77.21875 90.695312 L 77.65625 91.167969 C 77.894531 91.425781 78.160156 91.710938 78.234375 91.808594 L 78.382812 91.976562 L 90.332031 80.921875 C 96.910156 74.839844 102.214844 69.957031 102.117188 70.054688 C 102.019531 70.160156 97.648438 74.757812 92.394531 80.273438 C 87.152344 85.796875 82.238281 90.953125 81.484375 91.742188 C 80.339844 92.945312 80.128906 93.179688 80.183594 93.238281 C 80.214844 93.277344 80.5 93.546875 80.808594 93.839844 L 81.371094 94.367188 L 93.605469 81.515625 C 100.335938 74.441406 106.023438 68.472656 106.242188 68.25 L 106.648438 67.84375 L 106.285156 68.269531 C 106.082031 68.511719 100.785156 74.757812 94.496094 82.148438 L 83.074219 95.585938 L 83.246094 95.738281 C 83.34375 95.820312 83.644531 96.074219 83.90625 96.300781 L 84.390625 96.707031 L 97.714844 81.027344 C 105.054688 72.402344 111.109375 65.277344 111.1875 65.199219 C 111.261719 65.117188 111.289062 65.089844 111.261719 65.125 C 111.230469 65.171875 105.5625 72.554688 98.671875 81.539062 C 91.777344 90.53125 86.136719 97.898438 86.136719 97.910156 C 86.136719 97.933594 86.210938 98.003906 86.292969 98.070312 C 86.375 98.136719 86.675781 98.363281 86.960938 98.582031 L 87.472656 98.980469 L 101.476562 80.726562 C 109.183594 70.679688 115.519531 62.433594 115.558594 62.394531 C 115.59375 62.355469 115.511719 62.492188 115.363281 62.703125 C 115.21875 62.921875 109.238281 71.46875 102.082031 81.710938 C 94.917969 91.953125 89.0625 100.335938 89.070312 100.34375 C 89.085938 100.351562 89.402344 100.574219 89.785156 100.839844 C 90.167969 101.109375 90.476562 101.320312 90.484375 101.3125 C 90.492188 101.3125 97.128906 91.808594 105.242188 80.207031 C 113.351562 68.601562 120.011719 59.082031 120.042969 59.054688 C 120.074219 59.03125 120.058594 59.074219 120.003906 59.152344 C 119.960938 59.234375 113.640625 69.070312 105.972656 81.019531 C 98.304688 92.96875 92.027344 102.765625 92.019531 102.804688 C 92.019531 102.839844 92.328125 103.074219 92.710938 103.324219 C 93.09375 103.5625 93.417969 103.75 93.441406 103.734375 C 93.457031 103.722656 100.386719 92.921875 108.84375 79.746094 C 117.296875 66.570312 124.242188 55.773438 124.269531 55.742188 C 124.292969 55.71875 124.277344 55.773438 124.226562 55.863281 C 124.171875 55.960938 117.574219 67.082031 109.566406 80.582031 C 97.519531 100.898438 95.023438 105.144531 95.074219 105.195312 C 95.105469 105.226562 95.4375 105.429688 95.804688 105.648438 C 96.171875 105.859375 96.472656 106.03125 96.480469 106.023438 C 96.488281 106.015625 103.699219 93.871094 112.496094 79.03125 C 121.300781 64.191406 128.515625 52.023438 128.546875 52.003906 C 128.574219 51.972656 128.582031 51.972656 128.566406 52.003906 C 128.554688 52.023438 121.652344 64.539062 113.238281 79.8125 C 104.828125 95.089844 97.949219 107.589844 97.957031 107.597656 C 97.964844 107.597656 98.289062 107.785156 98.679688 107.996094 C 99.070312 108.214844 99.410156 108.386719 99.429688 108.386719 C 99.453125 108.386719 106.988281 94.75 116.167969 78.082031 C 125.347656 61.410156 132.886719 47.75 132.910156 47.726562 C 132.933594 47.699219 132.835938 47.917969 132.691406 48.210938 C 132.542969 48.496094 125.324219 62.539062 116.648438 79.40625 C 107.972656 96.285156 100.875 110.101562 100.875 110.117188 C 100.875 110.132812 101.214844 110.320312 101.628906 110.539062 L 102.390625 110.921875 L 119.863281 76.941406 C 129.472656 58.246094 137.34375 42.964844 137.351562 42.964844 C 137.355469 42.972656 129.816406 58.617188 120.605469 77.730469 C 111.390625 96.84375 103.863281 112.496094 103.871094 112.511719 C 103.886719 112.53125 104.234375 112.707031 104.640625 112.902344 C 105.050781 113.089844 105.398438 113.238281 105.40625 113.234375 C 105.414062 113.21875 113.984375 95.453125 124.445312 73.75 C 134.910156 52.039062 143.484375 34.257812 143.496094 34.222656 C 143.511719 34.183594 143.257812 34.039062 142.769531 33.800781 C 142.355469 33.605469 142 33.445312 141.976562 33.445312 C 141.960938 33.445312 141.625 34.121094 141.226562 34.949219 L 140.503906 36.457031 L 139.832031 36.117188 C 139.464844 35.929688 139.148438 35.761719 139.132812 35.753906 C 139.109375 35.75 138.75 36.433594 138.320312 37.269531 C 137.890625 38.109375 137.539062 38.804688 137.53125 38.8125 C 137.523438 38.820312 137.371094 38.742188 137.191406 38.636719 C 137.003906 38.53125 136.71875 38.375 136.542969 38.277344 L 136.222656 38.105469 L 135.421875 39.554688 C 134.988281 40.351562 134.601562 41.046875 134.566406 41.089844 L 134.496094 41.179688 L 134.1875 40.992188 C 134.023438 40.886719 133.761719 40.738281 133.609375 40.65625 L 133.339844 40.496094 L 132.4375 42.03125 C 131.933594 42.882812 131.511719 43.574219 131.496094 43.574219 C 131.472656 43.574219 131.238281 43.429688 130.96875 43.257812 C 130.699219 43.09375 130.464844 42.949219 130.441406 42.949219 C 130.425781 42.949219 130.003906 43.582031 129.507812 44.355469 C 129.019531 45.125 128.589844 45.785156 128.5625 45.816406 C 128.515625 45.863281 128.402344 45.808594 128.054688 45.5625 C 127.816406 45.386719 127.597656 45.257812 127.574219 45.265625 C 127.558594 45.28125 127.09375 45.945312 126.535156 46.734375 C 125.980469 47.53125 125.511719 48.179688 125.496094 48.179688 C 125.484375 48.179688 125.300781 48.050781 125.097656 47.894531 C 124.886719 47.734375 124.707031 47.613281 124.683594 47.636719 C 124.671875 47.660156 124.160156 48.324219 123.5625 49.105469 C 122.960938 49.894531 122.449219 50.535156 122.433594 50.535156 C 122.421875 50.535156 122.277344 50.429688 122.121094 50.292969 C 121.960938 50.160156 121.816406 50.054688 121.804688 50.054688 C 121.789062 50.054688 121.277344 50.648438 120.660156 51.371094 C 120.042969 52.101562 119.507812 52.71875 119.46875 52.746094 C 119.410156 52.800781 119.363281 52.769531 119.183594 52.597656 L 118.972656 52.386719 L 118.5 52.859375 C 118.242188 53.128906 117.65625 53.742188 117.191406 54.230469 L 116.339844 55.117188 L 116.195312 54.953125 L 116.054688 54.785156 L 115.894531 54.929688 C 115.804688 55.011719 115.292969 55.484375 114.753906 55.984375 C 114.210938 56.480469 113.660156 56.984375 113.535156 57.105469 C 113.359375 57.277344 113.300781 57.316406 113.253906 57.269531 C 113.21875 57.230469 113.179688 57.210938 113.15625 57.210938 C 113.140625 57.210938 112.503906 57.714844 111.734375 58.324219 C 110.855469 59.023438 110.296875 59.445312 110.230469 59.445312 C 110.164062 59.445312 108.800781 60.339844 107.054688 61.519531 C 105.367188 62.65625 103.796875 63.703125 103.546875 63.847656 C 103.308594 63.988281 101.976562 64.726562 100.597656 65.488281 L 98.085938 66.871094 L 95.171875 68.113281 L 92.261719 69.355469 L 89.421875 70.21875 L 86.59375 71.085938 L 83.976562 71.566406 C 82.539062 71.832031 81.257812 72.0625 81.136719 72.09375 C 81.027344 72.117188 79.511719 72.230469 77.78125 72.335938 L 74.636719 72.539062 L 72.070312 72.386719 L 69.503906 72.238281 L 68.421875 72.046875 C 67.828125 71.941406 66.464844 71.703125 65.390625 71.507812 L 63.441406 71.144531 L 60.550781 70.28125 L 57.660156 69.40625 L 54.867188 68.226562 C 53.332031 67.578125 51.925781 66.96875 51.738281 66.878906 C 51.558594 66.789062 50.226562 66.074219 48.789062 65.292969 C 47.34375 64.515625 46.09375 63.832031 45.996094 63.777344 C 45.90625 63.726562 44.566406 62.851562 43.023438 61.828125 C 41.480469 60.8125 40.140625 59.925781 40.042969 59.859375 C 39.953125 59.789062 39.105469 59.136719 38.164062 58.40625 C 36.660156 57.230469 36.441406 57.074219 36.359375 57.125 C 36.28125 57.171875 36.109375 57.042969 34.890625 55.945312 L 33.511719 54.710938 L 33.355469 54.855469 L 33.203125 55.003906 L 31.859375 53.664062 L 30.519531 52.316406 L 30.285156 52.542969 C 30.140625 52.6875 30.042969 52.753906 30.019531 52.722656 C 30.007812 52.695312 29.464844 52.070312 28.816406 51.339844 C 28.171875 50.609375 27.621094 50.015625 27.605469 50.015625 C 27.582031 50.015625 27.457031 50.121094 27.304688 50.257812 C 27.160156 50.382812 27.027344 50.496094 27.003906 50.496094 C 26.980469 50.496094 26.441406 49.851562 25.808594 49.058594 C 25.175781 48.261719 24.648438 47.613281 24.632812 47.613281 C 24.617188 47.613281 24.453125 47.742188 24.25 47.902344 C 24.054688 48.058594 23.882812 48.1875 23.859375 48.179688 C 23.84375 48.171875 23.355469 47.507812 22.765625 46.710938 C 22.066406 45.765625 21.683594 45.265625 21.644531 45.296875 C 21.617188 45.3125 21.414062 45.457031 21.210938 45.605469 C 21 45.765625 20.8125 45.882812 20.789062 45.882812 C 20.765625 45.882812 20.308594 45.230469 19.765625 44.425781 L 18.773438 42.957031 L 18.273438 43.296875 C 17.996094 43.476562 17.753906 43.625 17.734375 43.625 C 17.710938 43.625 17.265625 42.933594 16.738281 42.089844 L 15.785156 40.554688 L 15.609375 40.660156 C 15.519531 40.722656 15.257812 40.886719 15.039062 41.023438 C 14.8125 41.160156 14.625 41.269531 14.625 41.265625 C 14.617188 41.257812 14.21875 40.585938 13.738281 39.765625 C 13.257812 38.945312 12.847656 38.261719 12.828125 38.238281 C 12.8125 38.214844 12.5625 38.328125 12.292969 38.496094 C 12.015625 38.660156 11.734375 38.816406 11.667969 38.855469 L 11.539062 38.921875 L 10.710938 37.410156 C 10.253906 36.574219 9.871094 35.890625 9.855469 35.882812 C 9.839844 35.867188 9.539062 36.027344 9.183594 36.222656 C 8.839844 36.410156 8.539062 36.574219 8.515625 36.574219 C 8.492188 36.574219 8.117188 35.859375 7.664062 34.988281 C 7.214844 34.117188 6.828125 33.40625 6.800781 33.40625 Z M 204.261719 33.519531 C 199.09375 33.519531 194.019531 34.492188 189.242188 36.539062 C 184.660156 38.488281 180.566406 41.316406 176.953125 44.832031 C 173.445312 48.335938 170.714844 52.535156 168.765625 57.117188 C 166.71875 61.898438 165.742188 66.871094 165.742188 72.140625 C 165.742188 77.308594 166.71875 82.371094 168.765625 87.152344 C 170.714844 91.742188 173.445312 95.835938 176.953125 99.4375 C 180.566406 102.953125 184.660156 105.683594 189.242188 107.632812 C 194.019531 109.679688 199.09375 110.660156 204.261719 110.660156 C 209.527344 110.660156 214.503906 109.679688 219.28125 107.730469 C 223.863281 105.78125 228.054688 102.953125 231.570312 99.4375 C 235.082031 95.835938 237.90625 91.742188 239.863281 87.152344 C 241.8125 82.371094 242.878906 77.308594 242.878906 72.140625 L 242.878906 64.433594 L 204.261719 64.433594 L 204.261719 79.738281 L 226.300781 79.738281 C 225.136719 83.058594 223.277344 86.082031 220.742188 88.617188 C 216.355469 93.003906 210.507812 95.445312 204.261719 95.445312 C 198.023438 95.445312 192.167969 93.003906 187.78125 88.617188 C 183.394531 84.230469 180.957031 78.378906 180.957031 72.140625 C 180.957031 65.894531 183.394531 60.046875 187.78125 55.660156 C 192.167969 51.265625 198.023438 48.828125 204.261719 48.828125 C 208.070312 48.828125 211.671875 49.707031 214.992188 51.460938 C 218.207031 53.117188 220.9375 55.457031 223.082031 58.382812 L 235.46875 49.414062 C 231.960938 44.539062 227.28125 40.640625 222.011719 37.808594 C 216.648438 34.980469 210.507812 33.519531 204.261719 33.519531 Z M 244.226562 34.101562 L 244.226562 110.171875 L 293.476562 110.171875 L 293.476562 95.640625 L 259.53125 95.640625 L 259.53125 79.550781 L 293.476562 79.550781 L 293.476562 65.019531 L 259.53125 65.019531 L 259.53125 48.632812 L 293.476562 48.632812 L 293.476562 34.101562 Z M 296.472656 34.101562 L 296.472656 48.632812 L 317.152344 48.632812 L 317.152344 110.171875 L 332.457031 110.171875 L 332.457031 48.632812 L 353.429688 48.632812 L 353.429688 34.101562 Z M 357.9375 34.101562 L 357.9375 110.171875 L 373.25 110.171875 L 373.25 48.632812 L 384.753906 48.632812 C 388.660156 48.632812 391.777344 49.511719 393.730469 51.265625 C 395.679688 52.925781 396.660156 55.464844 396.660156 58.773438 C 396.660156 61.996094 395.679688 64.433594 393.828125 66.1875 C 391.679688 68.234375 388.171875 69.210938 383.589844 69.210938 L 380.660156 69.210938 L 380.660156 84.035156 L 398.796875 110.171875 L 429.191406 110.171875 L 435.332031 93.300781 L 461.464844 93.300781 L 467.710938 110.171875 L 528.933594 110.171875 L 539.65625 95.640625 L 504.0625 95.640625 L 538.292969 45.320312 L 538.292969 34.101562 L 495.09375 34.101562 L 484.363281 48.632812 L 517.425781 48.632812 L 483.488281 98.957031 L 483.488281 109.085938 L 454.933594 34.101562 L 441.765625 34.101562 L 414.425781 106.160156 L 397.140625 81.5 C 401.144531 80.03125 404.457031 77.886719 406.894531 74.96875 C 410.503906 70.867188 412.257812 65.5 412.257812 58.96875 C 412.257812 51.65625 410.015625 45.613281 405.824219 41.21875 C 403.582031 38.878906 400.753906 37.125 397.433594 35.957031 C 394.117188 34.6875 390.21875 34.101562 385.929688 34.101562 Z M 546.316406 34.101562 L 546.316406 110.171875 L 595.566406 110.171875 L 595.566406 95.640625 L 561.628906 95.640625 L 561.628906 79.550781 L 595.566406 79.550781 L 595.566406 65.019531 L 561.628906 65.019531 L 561.628906 48.632812 L 595.566406 48.632812 L 595.566406 34.101562 Z M 133.160156 47.269531 C 133.171875 47.269531 133.152344 47.328125 133.113281 47.410156 C 133.066406 47.488281 133.023438 47.554688 133.015625 47.554688 C 133 47.554688 133.023438 47.488281 133.0625 47.410156 C 133.105469 47.328125 133.152344 47.269531 133.160156 47.269531 Z M 16.535156 47.984375 C 16.550781 47.984375 16.597656 48.050781 16.632812 48.132812 C 16.679688 48.210938 16.703125 48.277344 16.6875 48.277344 C 16.671875 48.277344 16.628906 48.210938 16.589844 48.132812 C 16.542969 48.050781 16.523438 47.984375 16.535156 47.984375 Z M 124.421875 55.472656 C 124.4375 55.472656 124.421875 55.515625 124.390625 55.570312 C 124.371094 55.621094 124.332031 55.667969 124.316406 55.667969 C 124.308594 55.667969 124.316406 55.621094 124.347656 55.570312 C 124.375 55.515625 124.40625 55.472656 124.421875 55.472656 Z M 448.304688 57.414062 L 456.292969 79.0625 L 440.5 79.0625 Z M 38.847656 65.320312 C 38.863281 65.320312 38.914062 65.359375 38.960938 65.410156 C 39.015625 65.464844 39.035156 65.507812 39.027344 65.507812 C 39.015625 65.507812 38.960938 65.464844 38.914062 65.410156 C 38.863281 65.359375 38.839844 65.320312 38.847656 65.320312 Z M 52.882812 72.042969 C 52.890625 72.042969 52.925781 72.078125 52.964844 72.125 L 53.023438 72.207031 L 52.941406 72.140625 C 52.898438 72.101562 52.859375 72.070312 52.859375 72.054688 C 52.859375 72.046875 52.867188 72.042969 52.882812 72.042969 Z M 53.023438 72.175781 L 53.429688 72.476562 C 53.648438 72.644531 53.835938 72.792969 53.84375 72.816406 C 53.859375 72.832031 53.851562 72.859375 53.832031 72.867188 C 53.816406 72.882812 53.628906 72.734375 53.410156 72.539062 Z M 93.066406 73.148438 L 93.199219 73.148438 L 92.898438 73.378906 C 92.675781 73.5625 92.5625 73.621094 92.441406 73.621094 C 92.351562 73.621094 92.273438 73.613281 92.273438 73.597656 C 92.273438 73.589844 92.425781 73.476562 92.597656 73.359375 C 92.800781 73.230469 92.976562 73.148438 93.066406 73.148438 Z M 62.988281 74.96875 C 63.035156 74.96875 63.191406 75.042969 63.347656 75.132812 C 63.539062 75.246094 63.605469 75.300781 63.546875 75.300781 C 63.484375 75.308594 63.328125 75.230469 63.183594 75.132812 C 63.039062 75.042969 62.949219 74.96875 62.988281 74.96875 Z M 86.96875 75.011719 C 87.039062 75.011719 86.984375 75.074219 86.8125 75.1875 C 86.640625 75.300781 86.542969 75.34375 86.488281 75.3125 C 86.4375 75.285156 86.464844 75.246094 86.648438 75.148438 C 86.773438 75.074219 86.917969 75.011719 86.96875 75.011719 Z M 59.894531 75.164062 C 60.046875 75.164062 60.175781 75.222656 60.535156 75.464844 L 60.992188 75.765625 L 60.851562 75.796875 C 60.777344 75.8125 60.671875 75.824219 60.632812 75.824219 C 60.585938 75.832031 60.382812 75.707031 60.175781 75.539062 C 59.972656 75.382812 59.773438 75.230469 59.753906 75.210938 C 59.722656 75.179688 59.773438 75.164062 59.894531 75.164062 Z M 90.199219 75.214844 C 90.394531 75.214844 90.542969 75.222656 90.542969 75.246094 C 90.542969 75.269531 90.363281 75.425781 90.136719 75.601562 L 89.738281 75.917969 L 89.421875 75.855469 C 89.242188 75.824219 89.09375 75.789062 89.078125 75.773438 C 89.070312 75.765625 89.234375 75.636719 89.453125 75.488281 L 89.851562 75.214844 Z M 68.933594 76.074219 C 69.007812 76.074219 69.171875 76.128906 69.300781 76.1875 L 69.542969 76.300781 L 69.398438 76.335938 C 69.285156 76.359375 69.195312 76.335938 69.023438 76.238281 C 68.902344 76.171875 68.796875 76.105469 68.796875 76.097656 C 68.796875 76.082031 68.859375 76.074219 68.933594 76.074219 Z M 80.972656 76.082031 C 80.996094 76.082031 81.070312 76.097656 81.136719 76.121094 L 81.257812 76.15625 L 81.03125 76.269531 C 80.84375 76.359375 80.785156 76.367188 80.648438 76.332031 L 80.492188 76.285156 L 80.710938 76.1875 C 80.824219 76.128906 80.941406 76.082031 80.972656 76.082031 Z M 74.976562 76.464844 C 75.027344 76.457031 75.148438 76.480469 75.230469 76.511719 L 75.390625 76.570312 L 75.277344 76.632812 C 75.214844 76.667969 75.109375 76.699219 75.050781 76.699219 C 74.992188 76.699219 74.871094 76.660156 74.789062 76.617188 L 74.636719 76.539062 L 74.757812 76.503906 C 74.816406 76.480469 74.921875 76.464844 74.976562 76.464844 Z M 66.003906 76.609375 C 66.035156 76.609375 66.246094 76.707031 66.472656 76.828125 C 66.699219 76.949219 66.871094 77.066406 66.847656 77.089844 C 66.824219 77.105469 66.714844 77.152344 66.59375 77.179688 L 66.375 77.242188 L 66 77 C 65.796875 76.863281 65.628906 76.738281 65.628906 76.714844 C 65.628906 76.691406 65.695312 76.660156 65.789062 76.644531 C 65.871094 76.632812 65.96875 76.617188 66.003906 76.609375 Z M 84.066406 76.660156 C 84.164062 76.660156 84.300781 76.675781 84.375 76.691406 L 84.515625 76.722656 L 84.285156 76.894531 C 84.148438 76.992188 83.976562 77.113281 83.890625 77.164062 L 83.742188 77.269531 L 83.472656 77.195312 C 83.320312 77.152344 83.207031 77.097656 83.214844 77.074219 C 83.222656 77.050781 83.378906 76.949219 83.5625 76.84375 C 83.78125 76.722656 83.960938 76.660156 84.066406 76.660156 Z M 86.96875 77.179688 C 86.992188 77.179688 87.21875 77.21875 87.460938 77.257812 C 87.707031 77.300781 87.910156 77.355469 87.902344 77.367188 C 87.902344 77.382812 87.675781 77.578125 87.398438 77.796875 C 86.941406 78.160156 86.878906 78.195312 86.746094 78.167969 C 86.652344 78.152344 86.429688 78.089844 86.234375 78.03125 L 85.871094 77.917969 L 86.398438 77.550781 C 86.683594 77.355469 86.949219 77.1875 86.96875 77.179688 Z M 62.84375 77.1875 C 63.011719 77.15625 63.09375 77.164062 63.191406 77.226562 C 63.257812 77.261719 63.515625 77.429688 63.753906 77.585938 C 63.996094 77.746094 64.191406 77.886719 64.191406 77.902344 C 64.191406 77.910156 64.035156 77.972656 63.847656 78.03125 L 63.507812 78.128906 L 62.957031 77.707031 C 62.476562 77.332031 62.425781 77.277344 62.523438 77.25 C 62.582031 77.234375 62.730469 77.210938 62.84375 77.1875 Z M 72.035156 77.339844 L 72.371094 77.480469 C 72.558594 77.558594 72.734375 77.640625 72.753906 77.65625 C 72.769531 77.675781 72.65625 77.753906 72.492188 77.820312 L 72.183594 77.949219 L 71.808594 77.753906 C 71.605469 77.648438 71.445312 77.542969 71.460938 77.535156 C 71.46875 77.519531 71.605469 77.464844 71.761719 77.421875 L 72.03125 77.339844 Z M 77.984375 77.375 C 78.03125 77.375 78.195312 77.40625 78.355469 77.453125 C 78.511719 77.496094 78.640625 77.550781 78.640625 77.5625 C 78.640625 77.585938 78.488281 77.675781 78.300781 77.773438 L 77.96875 77.957031 L 77.632812 77.820312 C 77.453125 77.753906 77.300781 77.675781 77.300781 77.664062 C 77.300781 77.648438 77.4375 77.578125 77.601562 77.503906 C 77.765625 77.4375 77.933594 77.375 77.984375 77.375 Z M 69.054688 78.242188 C 69.070312 78.242188 69.324219 78.371094 69.625 78.527344 L 70.160156 78.820312 L 69.730469 79 L 69.308594 79.183594 L 68.804688 78.851562 C 68.527344 78.664062 68.292969 78.503906 68.277344 78.496094 C 68.269531 78.488281 68.4375 78.429688 68.640625 78.363281 C 68.851562 78.300781 69.03125 78.242188 69.054688 78.242188 Z M 81.046875 78.285156 C 81.085938 78.285156 81.257812 78.324219 81.425781 78.378906 C 81.597656 78.4375 81.769531 78.488281 81.808594 78.503906 C 81.851562 78.519531 81.695312 78.648438 81.378906 78.859375 L 80.882812 79.191406 L 80.640625 79.09375 C 80.507812 79.03125 80.3125 78.957031 80.210938 78.917969 C 80.113281 78.882812 80.03125 78.835938 80.039062 78.8125 C 80.039062 78.796875 80.242188 78.679688 80.507812 78.535156 C 80.761719 78.398438 81.003906 78.285156 81.046875 78.285156 Z M 75.027344 78.625 C 75.058594 78.625 75.285156 78.707031 75.523438 78.8125 C 75.773438 78.917969 75.976562 79.007812 75.992188 79.023438 C 76 79.03125 75.8125 79.152344 75.5625 79.289062 L 75.117188 79.535156 L 74.789062 79.363281 C 74.597656 79.265625 74.386719 79.144531 74.3125 79.105469 C 74.238281 79.0625 74.179688 79.015625 74.179688 79 C 74.179688 78.988281 74.359375 78.894531 74.578125 78.796875 C 74.792969 78.707031 74.996094 78.625 75.027344 78.625 Z M 66.074219 79.152344 C 66.089844 79.152344 66.398438 79.339844 66.757812 79.574219 L 67.414062 79.996094 L 66.9375 80.199219 C 66.683594 80.304688 66.457031 80.394531 66.441406 80.394531 C 66.425781 80.394531 66.15625 80.199219 65.839844 79.949219 C 65.523438 79.710938 65.261719 79.484375 65.246094 79.460938 C 65.230469 79.4375 65.410156 79.355469 65.628906 79.289062 C 65.855469 79.210938 66.058594 79.152344 66.074219 79.152344 Z M 84.027344 79.199219 C 84.066406 79.191406 84.34375 79.265625 84.636719 79.347656 C 84.929688 79.4375 85.179688 79.519531 85.179688 79.535156 C 85.179688 79.550781 84.914062 79.777344 84.601562 80.03125 L 84.011719 80.5 L 83.792969 80.417969 C 83.675781 80.371094 83.417969 80.265625 83.238281 80.183594 C 83.050781 80.101562 82.882812 80.015625 82.875 79.996094 C 82.871094 79.972656 83.109375 79.785156 83.410156 79.574219 C 83.710938 79.371094 83.992188 79.199219 84.027344 79.199219 Z M 72.09375 79.875 L 72.695312 80.191406 C 73.027344 80.363281 73.304688 80.507812 73.3125 80.515625 C 73.320312 80.523438 73.078125 80.65625 72.785156 80.824219 L 72.25 81.125 L 71.65625 80.726562 C 71.324219 80.507812 71.070312 80.324219 71.078125 80.320312 C 71.085938 80.3125 71.320312 80.207031 71.589844 80.085938 Z M 78.074219 79.914062 C 78.113281 79.914062 78.363281 80.003906 78.632812 80.117188 C 78.902344 80.226562 79.128906 80.332031 79.128906 80.355469 C 79.128906 80.371094 78.882812 80.542969 78.585938 80.746094 L 78.039062 81.125 L 77.488281 80.816406 L 76.933594 80.515625 L 77.464844 80.214844 C 77.757812 80.054688 78.03125 79.914062 78.074219 79.914062 Z M 69.121094 81.160156 C 69.152344 81.160156 69.480469 81.363281 69.859375 81.613281 L 70.542969 82.058594 L 69.964844 82.378906 L 69.382812 82.703125 L 68.714844 82.183594 C 68.347656 81.898438 68.046875 81.65625 68.039062 81.636719 C 68.039062 81.621094 68.269531 81.507812 68.558594 81.386719 C 68.835938 81.265625 69.089844 81.160156 69.121094 81.160156 Z M 81.144531 81.183594 C 81.183594 81.199219 81.492188 81.328125 81.832031 81.460938 C 82.160156 81.605469 82.433594 81.726562 82.425781 81.75 C 82.417969 81.761719 82.132812 82.003906 81.777344 82.289062 L 81.144531 82.800781 L 80.445312 82.417969 L 79.753906 82.042969 L 80.417969 81.605469 C 80.792969 81.347656 81.101562 81.175781 81.144531 81.183594 Z M 75.117188 81.507812 L 75.621094 81.777344 C 75.894531 81.921875 76.1875 82.078125 76.253906 82.117188 C 76.328125 82.164062 76.390625 82.207031 76.390625 82.222656 C 76.390625 82.230469 76.125 82.417969 75.8125 82.628906 C 75.488281 82.839844 75.207031 83.019531 75.1875 83.027344 C 75.171875 83.035156 74.871094 82.855469 74.523438 82.621094 C 74.179688 82.386719 73.90625 82.191406 73.914062 82.183594 C 73.929688 82.167969 74.199219 82.011719 74.523438 81.832031 Z M 78.144531 83.132812 L 78.429688 83.289062 C 78.585938 83.382812 78.933594 83.570312 79.191406 83.703125 C 79.445312 83.839844 79.65625 83.960938 79.65625 83.96875 C 79.65625 83.976562 79.339844 84.238281 78.964844 84.539062 L 78.265625 85.097656 L 77.519531 84.609375 C 77.113281 84.335938 76.78125 84.097656 76.789062 84.082031 C 76.796875 84.066406 77.105469 83.839844 77.472656 83.59375 Z M 72.152344 83.132812 C 72.160156 83.132812 72.492188 83.351562 72.890625 83.613281 L 73.613281 84.097656 L 73.433594 84.230469 C 73.328125 84.300781 73.042969 84.496094 72.800781 84.660156 C 72.453125 84.894531 72.328125 84.953125 72.265625 84.925781 C 72.214844 84.902344 71.882812 84.660156 71.527344 84.382812 C 71.175781 84.105469 70.890625 83.863281 70.90625 83.847656 C 70.910156 83.839844 71.199219 83.675781 71.535156 83.488281 C 71.867188 83.289062 72.144531 83.140625 72.152344 83.132812 Z M 75.222656 85.164062 C 75.253906 85.179688 75.613281 85.414062 76.015625 85.675781 C 76.421875 85.945312 76.765625 86.1875 76.789062 86.203125 C 76.8125 86.226562 76.519531 86.496094 76.125 86.804688 L 75.417969 87.375 L 75.320312 87.308594 C 75.261719 87.273438 74.894531 86.992188 74.507812 86.691406 C 74.117188 86.390625 73.800781 86.128906 73.800781 86.105469 C 73.800781 86.082031 74.109375 85.855469 74.480469 85.609375 C 74.855469 85.351562 75.195312 85.15625 75.222656 85.164062 Z M 75.222656 85.164062 " fill-opacity="1" fill-rule="nonzero"/></svg>