<svg xmlns="http://www.w3.org/2000/svg" xmlns:xlink="http://www.w3.org/1999/xlink" width="800" zoomAndPan="magnify" viewBox="0 0 600 149.999998" height="200" preserveAspectRatio="xMidYMid meet" version="1.0"><path fill="#ffffff" d="M 6.730469 33.660156 C 6.699219 33.660156 6.355469 33.832031 5.957031 34.042969 L 5.226562 34.425781 L 5.527344 35.015625 C 5.699219 35.339844 14.875 53.128906 25.917969 74.558594 C 36.96875 95.984375 46.015625 113.519531 46.03125 113.527344 C 46.039062 113.542969 46.371094 113.386719 46.769531 113.191406 C 47.167969 112.988281 47.507812 112.804688 47.523438 112.777344 C 47.535156 112.753906 39.757812 97.621094 30.242188 79.15625 C 20.722656 60.695312 12.753906 45.261719 12.542969 44.847656 C 12.332031 44.441406 12.175781 44.117188 12.199219 44.140625 C 12.214844 44.15625 20.496094 59.242188 30.589844 77.667969 C 40.683594 96.089844 48.957031 111.179688 48.972656 111.195312 C 48.996094 111.210938 49.335938 111.042969 49.726562 110.824219 C 50.125 110.609375 50.449219 110.398438 50.441406 110.359375 C 50.441406 110.328125 42.859375 96.46875 33.589844 79.566406 C 24.332031 62.648438 16.726562 48.761719 16.695312 48.710938 C 16.660156 48.648438 16.644531 48.597656 16.652344 48.597656 C 16.667969 48.597656 24.59375 62.148438 34.28125 78.714844 C 43.964844 95.285156 51.90625 108.839844 51.929688 108.839844 C 51.953125 108.839844 52.289062 108.648438 52.683594 108.425781 C 53.082031 108.191406 53.390625 107.996094 53.382812 107.980469 C 53.375 107.964844 46.113281 95.542969 37.253906 80.378906 C 28.386719 65.214844 21.105469 52.753906 21.058594 52.683594 C 21.023438 52.617188 21.015625 52.585938 21.035156 52.609375 C 21.066406 52.640625 28.664062 64.753906 37.921875 79.535156 C 47.183594 94.3125 54.773438 106.429688 54.796875 106.453125 C 54.808594 106.472656 55.148438 106.285156 55.539062 106.046875 C 55.929688 105.796875 56.246094 105.578125 56.246094 105.554688 C 56.246094 105.53125 49.3125 94.457031 40.84375 80.941406 C 32.371094 67.425781 25.429688 56.328125 25.40625 56.292969 C 25.378906 56.238281 25.378906 56.222656 25.40625 56.261719 C 25.4375 56.285156 32.726562 67.082031 41.617188 80.242188 C 50.507812 93.402344 57.796875 104.175781 57.820312 104.175781 C 57.84375 104.175781 58.15625 103.980469 58.503906 103.75 C 58.863281 103.507812 59.164062 103.289062 59.179688 103.265625 C 59.195312 103.238281 52.773438 93.675781 44.902344 82.019531 C 37.027344 70.355469 30.402344 60.546875 30.183594 60.222656 C 29.957031 59.890625 29.808594 59.648438 29.84375 59.695312 C 29.890625 59.734375 36.832031 69.203125 45.289062 80.746094 C 53.734375 92.28125 60.671875 101.722656 60.691406 101.722656 C 60.707031 101.722656 61.015625 101.511719 61.371094 101.25 C 61.722656 100.984375 62.007812 100.746094 62.007812 100.707031 C 62.007812 100.675781 55.910156 92.320312 48.453125 82.15625 C 41.007812 71.976562 34.792969 63.496094 34.644531 63.292969 C 34.5 63.097656 34.425781 62.976562 34.480469 63.03125 C 34.53125 63.082031 40.902344 71.027344 48.628906 80.6875 C 56.359375 90.339844 62.867188 98.46875 63.09375 98.757812 L 63.511719 99.269531 L 64.167969 98.742188 C 64.527344 98.457031 64.820312 98.199219 64.820312 98.175781 C 64.820312 98.160156 60.648438 92.9375 55.554688 86.566406 C 50.457031 80.203125 44.632812 72.929688 42.609375 70.410156 C 40.59375 67.886719 39.023438 65.890625 39.113281 65.988281 C 39.203125 66.078125 45.402344 73.082031 52.878906 81.550781 C 60.347656 90.023438 66.484375 96.957031 66.507812 96.964844 C 66.53125 96.972656 66.832031 96.738281 67.167969 96.4375 C 67.507812 96.136719 67.792969 95.878906 67.792969 95.867188 C 67.792969 95.851562 62.640625 90.007812 56.335938 82.871094 C 50.042969 75.730469 44.574219 69.535156 44.1875 69.105469 L 43.496094 68.316406 L 44.484375 69.300781 C 45.023438 69.84375 50.832031 75.730469 57.390625 82.386719 C 63.941406 89.050781 69.328125 94.503906 69.359375 94.511719 C 69.378906 94.519531 69.675781 94.253906 69.996094 93.929688 L 70.589844 93.335938 L 60.144531 82.726562 C 54.398438 76.890625 49.3125 71.726562 48.84375 71.253906 C 48.378906 70.777344 48.101562 70.476562 48.222656 70.582031 C 48.335938 70.679688 53.765625 75.550781 60.285156 81.402344 C 66.808594 87.253906 72.195312 92.09375 72.269531 92.152344 L 72.390625 92.265625 L 72.960938 91.632812 C 73.375 91.175781 73.511719 90.988281 73.480469 90.941406 C 73.457031 90.910156 69.117188 87.011719 63.835938 82.273438 C 58.554688 77.539062 54.15625 73.578125 54.050781 73.480469 C 53.914062 73.34375 53.886719 73.292969 53.9375 73.292969 C 53.984375 73.292969 54.605469 73.753906 55.328125 74.316406 L 56.636719 75.332031 L 56.652344 75.5 L 56.667969 75.65625 L 56.828125 75.632812 L 56.984375 75.605469 L 58.375 76.679688 C 59.21875 77.34375 59.773438 77.808594 59.804688 77.878906 C 59.835938 77.960938 59.886719 78 59.957031 78 C 60.015625 78 60.601562 78.421875 61.421875 79.058594 C 62.167969 79.640625 62.8125 80.167969 62.851562 80.226562 C 62.890625 80.296875 62.964844 80.355469 63.015625 80.363281 C 63.078125 80.378906 63.707031 80.84375 64.429688 81.410156 C 65.386719 82.15625 65.761719 82.472656 65.824219 82.589844 C 65.882812 82.726562 65.921875 82.757812 65.996094 82.734375 C 66.070312 82.71875 66.425781 82.96875 67.46875 83.78125 C 68.222656 84.367188 68.914062 84.902344 69.003906 84.96875 C 69.09375 85.046875 69.726562 85.535156 70.410156 86.070312 C 71.292969 86.753906 71.710938 87.109375 71.824219 87.273438 C 71.953125 87.457031 72.003906 87.5 72.066406 87.460938 C 72.125 87.433594 72.425781 87.644531 73.375 88.375 C 74.300781 89.097656 74.667969 89.414062 74.871094 89.675781 C 75.058594 89.902344 75.164062 90 75.203125 89.96875 C 75.234375 89.949219 75.917969 89.40625 76.714844 88.765625 C 77.511719 88.125 78.203125 87.589844 78.25 87.574219 C 78.292969 87.5625 78.382812 87.484375 78.453125 87.410156 C 78.519531 87.335938 80.492188 85.738281 82.84375 83.863281 C 85.191406 81.988281 87.148438 80.421875 87.191406 80.386719 C 87.238281 80.339844 87.914062 79.796875 88.695312 79.171875 C 89.472656 78.546875 90.140625 78.042969 90.171875 78.058594 C 90.207031 78.074219 90.253906 78.027344 90.285156 77.96875 C 90.308594 77.910156 90.9375 77.375 91.683594 76.777344 C 92.429688 76.183594 93.082031 75.695312 93.128906 75.695312 C 93.179688 75.695312 93.234375 75.648438 93.246094 75.605469 C 93.253906 75.550781 94.144531 74.8125 95.203125 73.964844 C 96.273438 73.113281 97.183594 72.390625 97.21875 72.359375 C 97.257812 72.328125 97.175781 72.410156 97.039062 72.546875 C 96.894531 72.683594 92.359375 76.882812 86.953125 81.890625 L 77.121094 90.992188 L 77.558594 91.46875 C 77.796875 91.722656 78.0625 92.011719 78.136719 92.109375 L 78.285156 92.273438 L 90.230469 81.214844 C 96.804688 75.128906 102.109375 70.242188 102.011719 70.339844 C 101.914062 70.445312 97.542969 75.046875 92.292969 80.566406 C 87.050781 86.09375 82.136719 91.25 81.386719 92.039062 C 80.242188 93.246094 80.03125 93.480469 80.085938 93.539062 C 80.113281 93.578125 80.398438 93.847656 80.707031 94.140625 L 81.273438 94.667969 L 93.503906 81.808594 C 100.226562 74.730469 105.914062 68.761719 106.132812 68.535156 L 106.539062 68.128906 L 106.179688 68.558594 C 105.976562 68.796875 100.679688 75.046875 94.390625 82.441406 L 82.972656 95.886719 L 83.144531 96.039062 C 83.242188 96.121094 83.542969 96.378906 83.808594 96.601562 L 84.289062 97.011719 L 97.609375 81.320312 C 104.945312 72.691406 111 65.558594 111.074219 65.484375 C 111.148438 65.402344 111.179688 65.371094 111.148438 65.410156 C 111.121094 65.453125 105.457031 72.839844 98.566406 81.832031 C 91.675781 90.828125 86.035156 98.199219 86.035156 98.214844 C 86.035156 98.238281 86.109375 98.304688 86.191406 98.371094 C 86.273438 98.441406 86.574219 98.667969 86.863281 98.882812 L 87.375 99.285156 L 101.371094 81.019531 C 109.074219 70.964844 115.40625 62.714844 115.445312 62.675781 C 115.484375 62.640625 115.398438 62.773438 115.25 62.984375 C 115.105469 63.203125 109.125 71.757812 101.972656 82.003906 C 94.8125 92.25 88.960938 100.640625 88.96875 100.648438 C 88.984375 100.652344 89.296875 100.878906 89.683594 101.144531 C 90.066406 101.414062 90.375 101.625 90.382812 101.617188 C 90.390625 101.617188 97.023438 92.109375 105.132812 80.5 C 113.242188 68.886719 119.898438 59.363281 119.929688 59.332031 C 119.957031 59.3125 119.941406 59.355469 119.890625 59.429688 C 119.84375 59.515625 113.527344 69.355469 105.863281 81.3125 C 98.195312 93.269531 91.925781 103.070312 91.917969 103.109375 C 91.917969 103.144531 92.226562 103.378906 92.609375 103.628906 C 92.992188 103.867188 93.316406 104.058594 93.339844 104.042969 C 93.351562 104.027344 100.28125 93.222656 108.734375 80.039062 C 117.183594 66.855469 124.125 56.050781 124.15625 56.019531 C 124.179688 56 124.164062 56.050781 124.109375 56.140625 C 124.058594 56.238281 117.460938 67.367188 109.457031 80.875 C 97.414062 101.203125 94.917969 105.449219 94.96875 105.503906 C 95 105.53125 95.332031 105.734375 95.699219 105.953125 C 96.070312 106.164062 96.371094 106.339844 96.375 106.332031 C 96.382812 106.324219 103.589844 94.171875 112.382812 79.324219 C 121.183594 64.476562 128.398438 52.300781 128.429688 52.277344 C 128.457031 52.25 128.464844 52.25 128.449219 52.277344 C 128.4375 52.300781 121.539062 64.824219 113.128906 80.105469 C 104.71875 95.390625 97.84375 107.898438 97.851562 107.90625 C 97.859375 107.90625 98.183594 108.09375 98.574219 108.304688 C 98.964844 108.523438 99.304688 108.695312 99.324219 108.695312 C 99.347656 108.695312 106.878906 95.050781 116.054688 78.375 C 125.230469 61.691406 132.769531 48.023438 132.789062 48.003906 C 132.8125 47.972656 132.714844 48.191406 132.574219 48.484375 C 132.421875 48.769531 125.207031 62.820312 116.535156 79.699219 C 107.863281 96.589844 100.769531 110.410156 100.769531 110.425781 C 100.769531 110.441406 101.109375 110.628906 101.523438 110.847656 L 102.28125 111.234375 L 119.746094 77.230469 C 129.351562 58.527344 137.222656 43.234375 137.230469 43.234375 C 137.234375 43.242188 129.699219 58.898438 120.492188 78.019531 C 111.277344 97.144531 103.757812 112.804688 103.761719 112.820312 C 103.777344 112.84375 104.125 113.015625 104.53125 113.210938 C 104.945312 113.402344 105.289062 113.550781 105.296875 113.542969 C 105.304688 113.527344 113.871094 95.753906 124.328125 74.039062 C 134.792969 52.316406 143.359375 34.523438 143.375 34.488281 C 143.390625 34.449219 143.132812 34.304688 142.644531 34.066406 C 142.230469 33.871094 141.878906 33.710938 141.855469 33.710938 C 141.839844 33.710938 141.5 34.390625 141.101562 35.21875 L 140.378906 36.722656 L 139.710938 36.382812 C 139.34375 36.195312 139.027344 36.03125 139.011719 36.023438 C 138.988281 36.015625 138.628906 36.699219 138.199219 37.535156 C 137.769531 38.378906 137.417969 39.074219 137.410156 39.082031 C 137.402344 39.085938 137.25 39.011719 137.070312 38.90625 C 136.882812 38.800781 136.597656 38.644531 136.425781 38.546875 L 136.101562 38.371094 L 135.304688 39.824219 C 134.867188 40.625 134.484375 41.316406 134.445312 41.363281 L 134.378906 41.453125 L 134.070312 41.261719 C 133.902344 41.15625 133.640625 41.007812 133.492188 40.925781 L 133.21875 40.765625 L 132.316406 42.300781 C 131.8125 43.152344 131.390625 43.847656 131.375 43.847656 C 131.355469 43.847656 131.121094 43.703125 130.851562 43.53125 C 130.578125 43.363281 130.347656 43.222656 130.324219 43.222656 C 130.308594 43.222656 129.886719 43.855469 129.390625 44.628906 C 128.902344 45.398438 128.472656 46.058594 128.441406 46.089844 C 128.398438 46.136719 128.285156 46.082031 127.9375 45.832031 C 127.699219 45.660156 127.480469 45.53125 127.457031 45.539062 C 127.441406 45.554688 126.976562 46.21875 126.417969 47.007812 C 125.863281 47.804688 125.398438 48.453125 125.382812 48.453125 C 125.367188 48.453125 125.1875 48.324219 124.984375 48.167969 C 124.773438 48.007812 124.59375 47.890625 124.570312 47.910156 C 124.554688 47.933594 124.042969 48.597656 123.449219 49.378906 C 122.847656 50.171875 122.335938 50.8125 122.320312 50.8125 C 122.304688 50.8125 122.164062 50.707031 122.003906 50.570312 C 121.847656 50.433594 121.703125 50.328125 121.6875 50.328125 C 121.671875 50.328125 121.160156 50.921875 120.546875 51.644531 C 119.929688 52.375 119.394531 52.992188 119.355469 53.023438 C 119.296875 53.078125 119.25 53.046875 119.070312 52.875 L 118.859375 52.664062 L 118.386719 53.136719 C 118.128906 53.40625 117.542969 54.019531 117.078125 54.507812 L 116.226562 55.394531 L 116.085938 55.230469 L 115.941406 55.066406 L 115.785156 55.207031 C 115.691406 55.289062 115.183594 55.765625 114.640625 56.261719 C 114.097656 56.757812 113.550781 57.261719 113.421875 57.382812 C 113.25 57.558594 113.1875 57.59375 113.144531 57.550781 C 113.105469 57.511719 113.066406 57.488281 113.046875 57.488281 C 113.03125 57.488281 112.390625 57.992188 111.625 58.601562 C 110.742188 59.304688 110.1875 59.726562 110.121094 59.726562 C 110.050781 59.726562 108.691406 60.621094 106.945312 61.804688 C 105.261719 62.941406 103.6875 63.988281 103.441406 64.128906 C 103.199219 64.273438 101.867188 65.011719 100.492188 65.769531 L 97.980469 67.15625 L 95.066406 68.398438 L 92.15625 69.640625 L 89.320312 70.507812 L 86.492188 71.371094 L 83.875 71.855469 C 82.4375 72.117188 81.160156 72.351562 81.039062 72.382812 C 80.925781 72.40625 79.414062 72.515625 77.683594 72.621094 L 74.539062 72.824219 L 71.976562 72.675781 L 69.410156 72.523438 L 68.328125 72.335938 C 67.734375 72.230469 66.371094 71.992188 65.296875 71.792969 L 63.347656 71.433594 L 60.460938 70.566406 L 57.570312 69.695312 L 54.78125 68.511719 C 53.246094 67.863281 51.839844 67.253906 51.652344 67.164062 C 51.472656 67.074219 50.140625 66.359375 48.703125 65.574219 C 47.257812 64.800781 46.007812 64.113281 45.910156 64.0625 C 45.820312 64.007812 44.484375 63.136719 42.941406 62.113281 C 41.398438 61.09375 40.058594 60.207031 39.960938 60.140625 C 39.871094 60.070312 39.023438 59.417969 38.082031 58.6875 C 36.578125 57.511719 36.359375 57.351562 36.277344 57.40625 C 36.199219 57.453125 36.027344 57.324219 34.808594 56.222656 L 33.433594 54.988281 L 33.273438 55.132812 L 33.125 55.28125 L 31.777344 53.941406 L 30.4375 52.59375 L 30.207031 52.820312 C 30.0625 52.964844 29.964844 53.03125 29.941406 53 C 29.929688 52.972656 29.386719 52.347656 28.738281 51.617188 C 28.09375 50.886719 27.542969 50.289062 27.527344 50.289062 C 27.503906 50.289062 27.378906 50.394531 27.226562 50.53125 C 27.085938 50.660156 26.949219 50.773438 26.925781 50.773438 C 26.902344 50.773438 26.363281 50.125 25.730469 49.335938 C 25.097656 48.535156 24.570312 47.890625 24.558594 47.890625 C 24.542969 47.890625 24.375 48.015625 24.171875 48.175781 C 23.976562 48.332031 23.804688 48.460938 23.78125 48.453125 C 23.765625 48.445312 23.277344 47.785156 22.691406 46.984375 C 21.992188 46.035156 21.609375 45.539062 21.570312 45.570312 C 21.539062 45.585938 21.335938 45.726562 21.132812 45.878906 C 20.925781 46.035156 20.734375 46.15625 20.714844 46.15625 C 20.691406 46.15625 20.230469 45.503906 19.691406 44.695312 L 18.699219 43.230469 L 18.199219 43.566406 C 17.921875 43.75 17.683594 43.898438 17.660156 43.898438 C 17.636719 43.898438 17.191406 43.207031 16.667969 42.363281 L 15.710938 40.828125 L 15.539062 40.933594 C 15.449219 40.992188 15.183594 41.15625 14.964844 41.292969 C 14.742188 41.429688 14.554688 41.542969 14.554688 41.535156 C 14.546875 41.527344 14.148438 40.855469 13.664062 40.035156 C 13.183594 39.214844 12.777344 38.53125 12.753906 38.507812 C 12.738281 38.484375 12.492188 38.597656 12.222656 38.765625 C 11.941406 38.929688 11.664062 39.085938 11.597656 39.125 L 11.46875 39.191406 L 10.640625 37.679688 C 10.183594 36.84375 9.800781 36.160156 9.785156 36.152344 C 9.769531 36.136719 9.46875 36.292969 9.113281 36.488281 C 8.769531 36.679688 8.46875 36.84375 8.445312 36.84375 C 8.421875 36.84375 8.046875 36.128906 7.59375 35.253906 C 7.144531 34.382812 6.761719 33.675781 6.730469 33.675781 Z M 204.113281 33.785156 C 198.945312 33.785156 193.875 34.757812 189.101562 36.804688 C 184.519531 38.757812 180.425781 41.585938 176.816406 45.101562 C 173.3125 48.613281 170.582031 52.8125 168.632812 57.398438 C 166.585938 62.179688 165.609375 67.15625 165.609375 72.425781 C 165.609375 77.597656 166.585938 82.667969 168.632812 87.449219 C 170.582031 92.039062 173.3125 96.136719 176.816406 99.742188 C 180.425781 103.257812 184.519531 105.992188 189.101562 107.941406 C 193.875 109.988281 198.945312 110.96875 204.113281 110.96875 C 209.378906 110.96875 214.351562 109.988281 219.128906 108.039062 C 223.707031 106.089844 227.898438 103.257812 231.410156 99.742188 C 234.925781 96.136719 237.746094 92.039062 239.699219 87.449219 C 241.648438 82.667969 242.71875 77.597656 242.71875 72.425781 L 242.71875 64.71875 L 204.113281 64.71875 L 204.113281 80.03125 L 226.144531 80.03125 C 224.980469 83.351562 223.121094 86.378906 220.585938 88.914062 C 216.203125 93.304688 210.355469 95.746094 204.113281 95.746094 C 197.878906 95.746094 192.027344 93.304688 187.640625 88.914062 C 183.253906 84.527344 180.820312 78.667969 180.820312 72.425781 C 180.820312 66.175781 183.253906 60.328125 187.640625 55.9375 C 192.027344 51.539062 197.878906 49.101562 204.113281 49.101562 C 207.921875 49.101562 211.523438 49.980469 214.839844 51.738281 C 218.050781 53.394531 220.78125 55.734375 222.925781 58.664062 L 235.308594 49.6875 C 231.800781 44.808594 227.125 40.910156 221.859375 38.078125 C 216.496094 35.246094 210.355469 33.785156 204.113281 33.785156 Z M 244.0625 34.367188 L 244.0625 110.480469 L 293.292969 110.480469 L 293.292969 95.941406 L 259.363281 95.941406 L 259.363281 79.84375 L 293.292969 79.84375 L 293.292969 65.304688 L 259.363281 65.304688 L 259.363281 48.90625 L 293.292969 48.90625 L 293.292969 34.367188 Z M 296.289062 34.367188 L 296.289062 48.90625 L 316.957031 48.90625 L 316.957031 110.480469 L 332.257812 110.480469 L 332.257812 48.90625 L 353.222656 48.90625 L 353.222656 34.367188 Z M 357.726562 34.367188 L 357.726562 110.480469 L 373.035156 110.480469 L 373.035156 48.90625 L 384.535156 48.90625 C 388.441406 48.90625 391.554688 49.785156 393.511719 51.539062 C 395.457031 53.203125 396.4375 55.742188 396.4375 59.054688 C 396.4375 62.277344 395.457031 64.71875 393.609375 66.472656 C 391.457031 68.519531 387.949219 69.5 383.371094 69.5 L 380.445312 69.5 L 380.445312 84.332031 L 398.570312 110.480469 L 428.953125 110.480469 L 435.089844 93.597656 L 461.214844 93.597656 L 467.457031 110.480469 L 528.65625 110.480469 L 539.375 95.941406 L 503.796875 95.941406 L 538.015625 45.59375 L 538.015625 34.367188 L 494.832031 34.367188 L 484.105469 48.90625 L 517.15625 48.90625 L 483.230469 99.261719 L 483.230469 109.394531 L 454.6875 34.367188 L 441.523438 34.367188 L 414.195312 106.464844 L 396.917969 81.792969 C 400.917969 80.324219 404.230469 78.179688 406.664062 75.257812 C 410.277344 71.15625 412.027344 65.785156 412.027344 59.25 C 412.027344 51.933594 409.789062 45.886719 405.597656 41.488281 C 403.355469 39.148438 400.527344 37.394531 397.210938 36.226562 C 393.894531 34.953125 389.996094 34.367188 385.710938 34.367188 Z M 546.03125 34.367188 L 546.03125 110.480469 L 595.265625 110.480469 L 595.265625 95.941406 L 561.339844 95.941406 L 561.339844 79.84375 L 595.265625 79.84375 L 595.265625 65.304688 L 561.339844 65.304688 L 561.339844 48.90625 L 595.265625 48.90625 L 595.265625 34.367188 Z M 133.039062 47.542969 C 133.054688 47.542969 133.03125 47.601562 132.992188 47.6875 C 132.949219 47.761719 132.902344 47.828125 132.894531 47.828125 C 132.882812 47.828125 132.902344 47.761719 132.941406 47.6875 C 132.984375 47.601562 133.03125 47.542969 133.039062 47.542969 Z M 16.464844 48.257812 C 16.476562 48.257812 16.523438 48.324219 16.5625 48.410156 C 16.605469 48.484375 16.628906 48.550781 16.613281 48.550781 C 16.597656 48.550781 16.554688 48.484375 16.515625 48.410156 C 16.472656 48.324219 16.449219 48.257812 16.464844 48.257812 Z M 124.304688 55.75 C 124.320312 55.75 124.304688 55.792969 124.277344 55.847656 C 124.253906 55.898438 124.214844 55.945312 124.199219 55.945312 C 124.191406 55.945312 124.199219 55.898438 124.230469 55.847656 C 124.261719 55.792969 124.289062 55.75 124.304688 55.75 Z M 448.058594 57.691406 L 456.046875 79.355469 L 440.257812 79.355469 Z M 38.765625 65.605469 C 38.78125 65.605469 38.832031 65.644531 38.878906 65.695312 C 38.929688 65.75 38.953125 65.792969 38.945312 65.792969 C 38.929688 65.792969 38.878906 65.75 38.832031 65.695312 C 38.78125 65.644531 38.757812 65.605469 38.765625 65.605469 Z M 52.792969 72.328125 C 52.800781 72.328125 52.839844 72.367188 52.878906 72.410156 L 52.9375 72.496094 L 52.855469 72.425781 C 52.808594 72.390625 52.773438 72.359375 52.773438 72.34375 C 52.773438 72.335938 52.78125 72.328125 52.792969 72.328125 Z M 52.9375 72.464844 L 53.34375 72.765625 C 53.5625 72.929688 53.75 73.082031 53.757812 73.105469 C 53.773438 73.121094 53.765625 73.148438 53.742188 73.15625 C 53.726562 73.171875 53.539062 73.023438 53.320312 72.824219 Z M 92.960938 73.4375 L 93.097656 73.4375 L 92.796875 73.667969 C 92.570312 73.851562 92.457031 73.910156 92.335938 73.910156 C 92.246094 73.910156 92.171875 73.902344 92.171875 73.886719 C 92.171875 73.878906 92.324219 73.765625 92.496094 73.648438 C 92.699219 73.519531 92.871094 73.4375 92.960938 73.4375 Z M 62.898438 75.257812 C 62.941406 75.257812 63.101562 75.332031 63.257812 75.421875 C 63.445312 75.535156 63.511719 75.589844 63.453125 75.589844 C 63.394531 75.597656 63.234375 75.519531 63.09375 75.421875 C 62.949219 75.332031 62.859375 75.257812 62.898438 75.257812 Z M 86.867188 75.304688 C 86.9375 75.304688 86.882812 75.363281 86.710938 75.476562 C 86.539062 75.589844 86.441406 75.632812 86.386719 75.605469 C 86.335938 75.574219 86.363281 75.535156 86.546875 75.4375 C 86.671875 75.363281 86.816406 75.304688 86.867188 75.304688 Z M 59.804688 75.453125 C 59.957031 75.453125 60.082031 75.515625 60.445312 75.753906 L 60.902344 76.054688 L 60.761719 76.085938 C 60.683594 76.101562 60.578125 76.117188 60.542969 76.117188 C 60.496094 76.125 60.292969 75.996094 60.082031 75.832031 C 59.878906 75.671875 59.683594 75.519531 59.660156 75.5 C 59.632812 75.46875 59.683594 75.453125 59.804688 75.453125 Z M 90.097656 75.507812 C 90.292969 75.507812 90.441406 75.515625 90.441406 75.535156 C 90.441406 75.558594 90.261719 75.71875 90.035156 75.890625 L 89.636719 76.207031 L 89.320312 76.144531 C 89.140625 76.117188 88.992188 76.078125 88.976562 76.0625 C 88.96875 76.054688 89.132812 75.929688 89.351562 75.777344 L 89.75 75.507812 Z M 68.839844 76.363281 C 68.914062 76.363281 69.078125 76.417969 69.207031 76.476562 L 69.449219 76.589844 L 69.304688 76.628906 C 69.191406 76.652344 69.101562 76.628906 68.929688 76.53125 C 68.808594 76.460938 68.703125 76.394531 68.703125 76.386719 C 68.703125 76.371094 68.765625 76.363281 68.839844 76.363281 Z M 80.875 76.371094 C 80.898438 76.371094 80.972656 76.386719 81.039062 76.410156 L 81.160156 76.449219 L 80.933594 76.558594 C 80.746094 76.652344 80.6875 76.660156 80.550781 76.621094 L 80.394531 76.574219 L 80.609375 76.476562 C 80.722656 76.417969 80.84375 76.371094 80.875 76.371094 Z M 74.878906 76.757812 C 74.933594 76.75 75.050781 76.769531 75.136719 76.800781 L 75.292969 76.863281 L 75.179688 76.921875 C 75.121094 76.960938 75.015625 76.988281 74.953125 76.988281 C 74.894531 76.988281 74.773438 76.953125 74.691406 76.90625 L 74.539062 76.832031 L 74.660156 76.792969 C 74.722656 76.769531 74.828125 76.757812 74.878906 76.757812 Z M 65.914062 76.898438 C 65.941406 76.898438 66.152344 76.996094 66.378906 77.117188 C 66.605469 77.238281 66.777344 77.359375 66.753906 77.382812 C 66.734375 77.394531 66.621094 77.441406 66.5 77.472656 L 66.28125 77.53125 L 65.90625 77.289062 C 65.703125 77.15625 65.535156 77.027344 65.535156 77.003906 C 65.535156 76.980469 65.605469 76.953125 65.695312 76.9375 C 65.777344 76.921875 65.875 76.90625 65.914062 76.898438 Z M 83.964844 76.953125 C 84.0625 76.953125 84.199219 76.96875 84.273438 76.980469 L 84.417969 77.011719 L 84.183594 77.183594 C 84.046875 77.285156 83.875 77.402344 83.792969 77.457031 L 83.640625 77.5625 L 83.371094 77.488281 C 83.222656 77.441406 83.109375 77.390625 83.117188 77.367188 C 83.125 77.34375 83.28125 77.238281 83.460938 77.132812 C 83.679688 77.011719 83.859375 76.953125 83.964844 76.953125 Z M 86.867188 77.472656 C 86.890625 77.472656 87.117188 77.507812 87.359375 77.546875 C 87.605469 77.59375 87.808594 77.644531 87.800781 77.660156 C 87.800781 77.675781 87.574219 77.871094 87.296875 78.089844 C 86.839844 78.449219 86.777344 78.488281 86.644531 78.457031 C 86.554688 78.441406 86.328125 78.382812 86.132812 78.324219 L 85.769531 78.210938 L 86.296875 77.839844 C 86.582031 77.644531 86.847656 77.480469 86.867188 77.472656 Z M 62.753906 77.480469 C 62.917969 77.449219 63 77.457031 63.101562 77.515625 C 63.167969 77.554688 63.421875 77.71875 63.664062 77.878906 C 63.90625 78.035156 64.101562 78.179688 64.101562 78.195312 C 64.101562 78.203125 63.941406 78.261719 63.753906 78.324219 L 63.414062 78.421875 L 62.867188 78 C 62.386719 77.621094 62.332031 77.570312 62.429688 77.539062 C 62.492188 77.523438 62.640625 77.5 62.753906 77.480469 Z M 71.9375 77.628906 L 72.277344 77.773438 C 72.464844 77.847656 72.636719 77.929688 72.660156 77.945312 C 72.675781 77.96875 72.5625 78.042969 72.398438 78.113281 L 72.089844 78.238281 L 71.710938 78.042969 C 71.507812 77.9375 71.351562 77.832031 71.367188 77.824219 C 71.375 77.808594 71.507812 77.757812 71.667969 77.710938 Z M 77.886719 77.667969 C 77.933594 77.667969 78.097656 77.699219 78.257812 77.742188 C 78.414062 77.789062 78.542969 77.839844 78.542969 77.855469 C 78.542969 77.878906 78.390625 77.96875 78.203125 78.066406 L 77.871094 78.246094 L 77.535156 78.113281 C 77.355469 78.042969 77.203125 77.96875 77.203125 77.953125 C 77.203125 77.9375 77.339844 77.871094 77.503906 77.796875 C 77.667969 77.726562 77.835938 77.667969 77.886719 77.667969 Z M 68.960938 78.535156 C 68.972656 78.535156 69.230469 78.660156 69.53125 78.820312 L 70.066406 79.113281 L 69.636719 79.292969 L 69.214844 79.472656 L 68.710938 79.144531 C 68.433594 78.953125 68.199219 78.796875 68.183594 78.789062 C 68.175781 78.78125 68.34375 78.722656 68.546875 78.652344 C 68.757812 78.59375 68.9375 78.535156 68.960938 78.535156 Z M 80.949219 78.578125 C 80.988281 78.578125 81.160156 78.617188 81.324219 78.667969 C 81.5 78.730469 81.671875 78.78125 81.710938 78.796875 C 81.753906 78.8125 81.597656 78.941406 81.28125 79.152344 L 80.785156 79.480469 L 80.542969 79.382812 C 80.40625 79.324219 80.210938 79.25 80.113281 79.210938 C 80.015625 79.171875 79.933594 79.128906 79.941406 79.105469 C 79.941406 79.089844 80.144531 78.96875 80.40625 78.828125 C 80.664062 78.691406 80.902344 78.578125 80.949219 78.578125 Z M 74.933594 78.917969 C 74.960938 78.917969 75.1875 79 75.429688 79.105469 C 75.675781 79.210938 75.878906 79.300781 75.894531 79.316406 C 75.902344 79.324219 75.714844 79.445312 75.464844 79.578125 L 75.023438 79.828125 L 74.691406 79.65625 C 74.503906 79.558594 74.292969 79.4375 74.21875 79.398438 C 74.140625 79.355469 74.082031 79.308594 74.082031 79.292969 C 74.082031 79.277344 74.261719 79.1875 74.480469 79.089844 C 74.699219 79 74.902344 78.917969 74.933594 78.917969 Z M 65.980469 79.445312 C 65.996094 79.445312 66.304688 79.632812 66.664062 79.867188 L 67.320312 80.289062 L 66.84375 80.492188 C 66.589844 80.597656 66.363281 80.6875 66.347656 80.6875 C 66.335938 80.6875 66.0625 80.492188 65.746094 80.242188 C 65.429688 80 65.167969 79.777344 65.152344 79.753906 C 65.136719 79.730469 65.320312 79.648438 65.535156 79.578125 C 65.761719 79.503906 65.964844 79.445312 65.980469 79.445312 Z M 83.929688 79.488281 C 83.964844 79.480469 84.242188 79.558594 84.539062 79.640625 C 84.832031 79.730469 85.078125 79.8125 85.078125 79.828125 C 85.078125 79.84375 84.816406 80.070312 84.5 80.324219 L 83.914062 80.792969 L 83.695312 80.710938 C 83.574219 80.664062 83.320312 80.558594 83.136719 80.476562 C 82.949219 80.394531 82.785156 80.308594 82.777344 80.289062 C 82.769531 80.265625 83.011719 80.078125 83.3125 79.867188 C 83.613281 79.664062 83.890625 79.488281 83.929688 79.488281 Z M 72 80.167969 L 72.601562 80.484375 C 72.929688 80.65625 73.210938 80.800781 73.214844 80.808594 C 73.222656 80.816406 72.984375 80.949219 72.691406 81.117188 L 72.15625 81.417969 L 71.5625 81.019531 C 71.230469 80.800781 70.976562 80.617188 70.984375 80.609375 C 70.988281 80.605469 71.222656 80.5 71.496094 80.378906 Z M 77.976562 80.203125 C 78.015625 80.203125 78.265625 80.296875 78.535156 80.40625 C 78.804688 80.519531 79.03125 80.625 79.03125 80.648438 C 79.03125 80.664062 78.78125 80.835938 78.488281 81.039062 L 77.941406 81.417969 L 77.390625 81.109375 L 76.835938 80.808594 L 77.367188 80.503906 C 77.664062 80.347656 77.933594 80.203125 77.976562 80.203125 Z M 69.027344 81.453125 C 69.058594 81.453125 69.386719 81.65625 69.765625 81.90625 L 70.449219 82.351562 L 69.871094 82.675781 L 69.289062 82.996094 L 68.621094 82.476562 C 68.253906 82.191406 67.953125 81.953125 67.945312 81.929688 C 67.945312 81.914062 68.175781 81.800781 68.460938 81.679688 C 68.742188 81.558594 68.996094 81.453125 69.027344 81.453125 Z M 81.046875 81.476562 C 81.085938 81.492188 81.394531 81.621094 81.730469 81.753906 C 82.0625 81.898438 82.332031 82.019531 82.324219 82.042969 C 82.316406 82.058594 82.03125 82.296875 81.679688 82.582031 L 81.046875 83.097656 L 80.347656 82.710938 L 79.65625 82.335938 L 80.316406 81.898438 C 80.695312 81.644531 81.003906 81.46875 81.046875 81.476562 Z M 75.023438 81.800781 L 75.527344 82.070312 C 75.796875 82.214844 76.089844 82.375 76.15625 82.410156 C 76.234375 82.457031 76.292969 82.5 76.292969 82.515625 C 76.292969 82.523438 76.03125 82.710938 75.714844 82.921875 C 75.390625 83.132812 75.113281 83.3125 75.089844 83.320312 C 75.074219 83.328125 74.773438 83.148438 74.429688 82.914062 C 74.082031 82.683594 73.8125 82.484375 73.820312 82.480469 C 73.832031 82.464844 74.105469 82.304688 74.429688 82.125 Z M 78.046875 83.425781 L 78.332031 83.585938 C 78.488281 83.675781 78.835938 83.863281 79.089844 84 C 79.347656 84.136719 79.558594 84.253906 79.558594 84.261719 C 79.558594 84.269531 79.242188 84.535156 78.867188 84.835938 L 78.167969 85.390625 L 77.421875 84.902344 C 77.015625 84.632812 76.683594 84.390625 76.691406 84.375 C 76.699219 84.359375 77.007812 84.136719 77.375 83.886719 Z M 72.058594 83.425781 C 72.066406 83.425781 72.398438 83.644531 72.796875 83.910156 L 73.519531 84.390625 L 73.335938 84.527344 C 73.230469 84.59375 72.945312 84.789062 72.707031 84.957031 C 72.359375 85.1875 72.230469 85.25 72.171875 85.21875 C 72.117188 85.195312 71.789062 84.957031 71.433594 84.675781 C 71.082031 84.398438 70.792969 84.15625 70.808594 84.140625 C 70.816406 84.136719 71.101562 83.96875 71.441406 83.78125 C 71.773438 83.585938 72.050781 83.433594 72.058594 83.425781 Z M 75.128906 85.460938 C 75.15625 85.476562 75.519531 85.707031 75.917969 85.972656 C 76.324219 86.242188 76.667969 86.484375 76.691406 86.5 C 76.714844 86.523438 76.421875 86.792969 76.03125 87.101562 L 75.324219 87.671875 L 75.226562 87.605469 C 75.164062 87.566406 74.796875 87.289062 74.414062 86.988281 C 74.023438 86.6875 73.707031 86.425781 73.707031 86.402344 C 73.707031 86.378906 74.015625 86.152344 74.382812 85.90625 C 74.757812 85.648438 75.097656 85.453125 75.128906 85.460938 Z M 75.128906 85.460938 " fill-opacity="1" fill-rule="nonzero"/></svg>