<svg xmlns="http://www.w3.org/2000/svg" xmlns:xlink="http://www.w3.org/1999/xlink" width="800" zoomAndPan="magnify" viewBox="0 0 600 599.999999" height="800" preserveAspectRatio="xMidYMid meet" version="1.0"><path fill="#7229f7" d="M 18.460938 126.203125 C 18.351562 126.207031 16.886719 126.933594 15.207031 127.820312 L 12.152344 129.429688 L 13.429688 131.886719 C 14.132812 133.242188 52.617188 207.789062 98.953125 297.554688 C 145.289062 387.320312 183.230469 460.796875 183.273438 460.84375 C 183.316406 460.886719 184.714844 460.238281 186.375 459.402344 C 188.039062 458.570312 189.460938 457.796875 189.527344 457.683594 C 189.597656 457.570312 156.988281 394.191406 117.066406 316.84375 C 77.140625 239.488281 43.746094 174.796875 42.855469 173.085938 C 41.96875 171.367188 41.308594 170.027344 41.390625 170.101562 C 41.472656 170.175781 76.179688 233.394531 118.511719 310.582031 C 160.847656 387.769531 195.554688 450.988281 195.628906 451.054688 C 195.707031 451.128906 197.128906 450.429688 198.789062 449.503906 C 200.449219 448.578125 201.800781 447.707031 201.789062 447.5625 C 201.78125 447.417969 169.980469 389.359375 131.125 318.519531 C 92.273438 247.660156 60.375 189.492188 60.246094 189.246094 C 60.117188 188.996094 60.046875 188.792969 60.089844 188.792969 C 60.136719 188.792969 93.394531 245.582031 134.007812 314.984375 C 174.613281 384.390625 207.921875 441.175781 208.019531 441.175781 C 208.121094 441.175781 209.546875 440.394531 211.191406 439.4375 C 212.835938 438.480469 214.148438 437.644531 214.109375 437.578125 C 214.070312 437.507812 183.628906 385.464844 146.460938 321.925781 C 109.289062 258.394531 78.738281 206.183594 78.570312 205.90625 C 78.402344 205.628906 78.359375 205.492188 78.476562 205.601562 C 78.597656 205.714844 110.460938 256.476562 149.289062 318.410156 C 188.113281 380.34375 219.945312 431.089844 220.027344 431.179688 C 220.105469 431.269531 221.511719 430.5 223.148438 429.46875 C 224.789062 428.441406 226.125 427.523438 226.117188 427.429688 C 226.113281 427.339844 197.050781 380.933594 161.53125 324.304688 C 126.011719 267.667969 96.875 221.1875 96.777344 221.011719 C 96.65625 220.796875 96.664062 220.757812 96.800781 220.890625 C 96.910156 221 127.496094 266.21875 164.769531 321.371094 C 202.042969 376.523438 232.617188 421.648438 232.722656 421.648438 C 232.828125 421.648438 234.125 420.839844 235.609375 419.847656 C 237.089844 418.855469 238.359375 417.949219 238.433594 417.832031 C 238.503906 417.71875 211.554688 377.660156 178.542969 328.820312 C 145.53125 279.960938 117.753906 238.867188 116.816406 237.484375 C 115.875 236.097656 115.242188 235.101562 115.414062 235.269531 C 115.582031 235.433594 144.722656 275.125 180.164062 323.472656 C 215.609375 371.816406 244.675781 411.371094 244.757812 411.371094 C 244.84375 411.371094 246.125 410.476562 247.613281 409.386719 C 249.097656 408.292969 250.300781 407.273438 250.292969 407.121094 C 250.28125 406.976562 224.703125 371.972656 193.457031 329.367188 C 162.207031 286.75 136.144531 251.199219 135.539062 250.367188 C 134.933594 249.535156 134.617188 249.039062 134.839844 249.261719 C 135.058594 249.484375 161.761719 282.765625 194.175781 323.226562 C 226.585938 363.683594 253.890625 397.753906 254.847656 398.933594 L 256.59375 401.078125 L 259.339844 398.878906 C 260.847656 397.667969 262.085938 396.609375 262.085938 396.527344 C 262.085938 396.445312 244.589844 374.554688 223.210938 347.878906 C 201.832031 321.199219 177.414062 290.738281 168.949219 280.167969 C 160.488281 269.597656 153.882812 261.261719 154.273438 261.652344 C 154.660156 262.039062 180.632812 291.382812 211.984375 326.859375 C 243.332031 362.335938 269.0625 391.394531 269.15625 391.429688 C 269.253906 391.464844 270.5 390.472656 271.929688 389.21875 C 273.363281 387.964844 274.542969 386.890625 274.550781 386.835938 C 274.558594 386.777344 252.945312 362.269531 226.515625 332.375 C 200.089844 302.476562 177.160156 276.519531 175.566406 274.707031 L 172.671875 271.40625 L 176.796875 275.53125 C 179.070312 277.796875 203.421875 302.480469 230.914062 330.375 C 258.40625 358.269531 280.992188 381.117188 281.105469 381.144531 C 281.21875 381.175781 282.429688 380.078125 283.796875 378.710938 L 286.277344 376.21875 L 242.460938 331.765625 C 218.355469 307.332031 197.042969 285.683594 195.09375 283.695312 C 193.140625 281.710938 191.953125 280.445312 192.453125 280.882812 C 192.949219 281.320312 215.730469 301.730469 243.070312 326.238281 C 270.410156 350.742188 293.015625 371.011719 293.304688 371.273438 L 293.828125 371.757812 L 296.207031 369.109375 C 297.949219 367.179688 298.539062 366.394531 298.402344 366.199219 C 298.300781 366.054688 280.101562 349.726562 257.960938 329.890625 C 235.824219 310.054688 217.351562 293.460938 216.910156 293.03125 C 216.351562 292.488281 216.210938 292.25 216.441406 292.25 C 216.625 292.25 219.253906 294.175781 222.277344 296.535156 L 227.773438 300.816406 L 227.839844 301.488281 L 227.902344 302.160156 L 228.566406 302.050781 L 229.226562 301.945312 L 235.039062 306.460938 C 238.59375 309.21875 240.929688 311.167969 241.046875 311.472656 C 241.167969 311.792969 241.394531 311.972656 241.671875 311.972656 C 241.933594 311.972656 244.394531 313.75 247.820312 316.410156 C 250.964844 318.847656 253.667969 321.058594 253.828125 321.324219 C 253.992188 321.585938 254.308594 321.839844 254.535156 321.882812 C 254.757812 321.925781 257.417969 323.886719 260.441406 326.246094 C 264.460938 329.375 266.027344 330.710938 266.269531 331.222656 C 266.527344 331.765625 266.695312 331.898438 267.019531 331.816406 C 267.339844 331.734375 268.808594 332.777344 273.183594 336.179688 C 276.34375 338.640625 279.242188 340.898438 279.617188 341.195312 C 279.996094 341.492188 282.660156 343.5625 285.535156 345.792969 C 289.226562 348.65625 290.96875 350.136719 291.453125 350.828125 C 291.988281 351.589844 292.210938 351.765625 292.464844 351.628906 C 292.71875 351.492188 293.972656 352.367188 297.945312 355.457031 C 301.835938 358.484375 303.375 359.808594 304.242188 360.886719 C 305.03125 361.859375 305.46875 362.253906 305.628906 362.128906 C 305.757812 362.027344 308.605469 359.757812 311.957031 357.078125 C 315.3125 354.398438 318.207031 352.15625 318.398438 352.089844 C 318.589844 352.023438 318.972656 351.714844 319.246094 351.402344 C 319.523438 351.09375 327.8125 344.40625 337.664062 336.550781 C 347.515625 328.691406 355.726562 322.125 355.917969 321.957031 C 356.105469 321.789062 358.933594 319.515625 362.203125 316.894531 C 365.472656 314.28125 368.261719 312.175781 368.402344 312.226562 C 368.542969 312.273438 368.746094 312.105469 368.859375 311.855469 C 368.96875 311.605469 371.617188 309.355469 374.742188 306.855469 C 377.867188 304.355469 380.597656 302.3125 380.808594 302.3125 C 381.015625 302.3125 381.234375 302.140625 381.289062 301.933594 C 381.34375 301.722656 385.042969 298.628906 389.515625 295.0625 C 393.980469 291.492188 397.78125 288.46875 397.949219 288.347656 C 398.121094 288.222656 397.78125 288.578125 397.191406 289.128906 C 396.601562 289.683594 377.570312 307.296875 354.894531 328.273438 L 313.667969 366.414062 L 315.503906 368.390625 C 316.511719 369.480469 317.605469 370.6875 317.941406 371.074219 L 318.546875 371.78125 L 368.660156 325.445312 C 396.222656 299.964844 418.445312 279.464844 418.042969 279.890625 C 417.648438 280.324219 399.3125 299.601562 377.300781 322.738281 C 355.289062 345.875 334.707031 367.5 331.5625 370.792969 C 326.746094 375.839844 325.886719 376.832031 326.097656 377.082031 C 326.234375 377.25 327.410156 378.382812 328.710938 379.597656 L 331.078125 381.8125 L 382.371094 327.925781 C 410.582031 298.285156 434.421875 273.265625 435.347656 272.324219 L 437.03125 270.613281 L 435.515625 272.425781 C 434.6875 273.421875 412.449219 299.59375 386.101562 330.585938 L 338.203125 386.933594 L 338.941406 387.5625 C 339.347656 387.90625 340.589844 388.964844 341.699219 389.910156 L 343.722656 391.628906 L 399.605469 325.886719 C 430.339844 289.730469 455.742188 259.875 456.050781 259.535156 C 456.359375 259.195312 456.507812 259.0625 456.382812 259.230469 C 456.257812 259.40625 432.507812 290.367188 403.605469 328.039062 C 374.699219 365.710938 351.050781 396.597656 351.050781 396.671875 C 351.050781 396.746094 351.34375 397.039062 351.707031 397.320312 C 352.066406 397.601562 353.324219 398.578125 354.503906 399.484375 L 356.652344 401.136719 L 415.367188 324.605469 C 447.65625 282.515625 474.214844 247.9375 474.382812 247.777344 C 474.550781 247.609375 474.183594 248.199219 473.574219 249.085938 C 472.964844 249.96875 447.902344 285.820312 417.886719 328.757812 C 387.867188 371.691406 363.335938 406.839844 363.367188 406.863281 C 363.402344 406.886719 364.734375 407.828125 366.335938 408.949219 C 367.9375 410.066406 369.261719 410.964844 369.277344 410.941406 C 369.296875 410.921875 397.136719 371.09375 431.144531 322.441406 C 465.152344 273.792969 493.074219 233.898438 493.199219 233.785156 C 493.320312 233.675781 493.246094 233.855469 493.039062 234.1875 C 492.832031 234.519531 466.355469 275.769531 434.203125 325.851562 C 402.054688 375.933594 375.738281 417.027344 375.726562 417.175781 C 375.714844 417.324219 377.019531 418.296875 378.621094 419.335938 C 380.226562 420.375 381.59375 421.164062 381.664062 421.09375 C 381.730469 421.019531 410.789062 375.765625 446.238281 320.53125 C 481.683594 265.296875 510.785156 220.011719 510.90625 219.898438 C 511.023438 219.789062 510.9375 220.015625 510.71875 220.402344 C 510.5 220.792969 482.851562 267.421875 449.28125 324.023438 C 398.773438 409.1875 388.289062 426.984375 388.515625 427.195312 C 388.664062 427.332031 390.042969 428.1875 391.582031 429.089844 C 393.121094 429.992188 394.402344 430.703125 394.429688 430.675781 C 394.460938 430.644531 424.667969 379.722656 461.554688 317.511719 C 498.441406 255.300781 528.710938 204.3125 528.820312 204.203125 C 528.957031 204.066406 528.988281 204.066406 528.917969 204.203125 C 528.859375 204.3125 499.949219 256.78125 464.671875 320.804688 C 429.398438 384.828125 400.5625 437.230469 400.597656 437.253906 C 400.632812 437.28125 402 438.042969 403.636719 438.945312 C 405.273438 439.847656 406.6875 440.582031 406.78125 440.582031 C 406.875 440.582031 438.449219 383.410156 476.945312 313.535156 C 515.441406 243.65625 547.023438 186.394531 547.128906 186.289062 C 547.234375 186.175781 546.820312 187.082031 546.210938 188.300781 C 545.601562 189.519531 515.34375 248.386719 478.96875 319.113281 C 442.597656 389.84375 412.832031 447.769531 412.832031 447.835938 C 412.832031 447.90625 414.261719 448.695312 416.003906 449.589844 L 419.175781 451.222656 L 492.433594 308.757812 C 532.726562 230.402344 565.707031 166.3125 565.738281 166.339844 C 565.761719 166.367188 534.179688 231.9375 495.550781 312.058594 C 456.921875 392.179688 425.355469 457.796875 425.40625 457.871094 C 425.453125 457.949219 426.902344 458.679688 428.625 459.492188 C 430.347656 460.304688 431.785156 460.933594 431.824219 460.886719 C 431.863281 460.84375 467.785156 386.359375 511.648438 295.367188 C 555.515625 204.378906 591.449219 129.816406 591.503906 129.675781 C 591.566406 129.511719 590.511719 128.902344 588.449219 127.914062 C 586.714844 127.085938 585.234375 126.410156 585.15625 126.414062 C 585.078125 126.417969 583.65625 129.261719 581.996094 132.730469 L 578.976562 139.039062 L 576.15625 137.609375 C 574.609375 136.820312 573.28125 136.148438 573.210938 136.113281 C 573.140625 136.078125 571.609375 138.929688 569.808594 142.449219 C 568.011719 145.96875 566.523438 148.875 566.496094 148.90625 C 566.472656 148.9375 565.828125 148.613281 565.066406 148.1875 C 564.304688 147.757812 563.082031 147.082031 562.351562 146.679688 L 561.023438 145.945312 L 557.679688 152.03125 C 555.839844 155.375 554.210938 158.277344 554.0625 158.480469 L 553.792969 158.855469 L 552.496094 158.066406 C 551.785156 157.632812 550.691406 156.988281 550.0625 156.632812 L 548.929688 155.988281 L 545.132812 162.425781 C 543.046875 165.964844 541.277344 168.863281 541.195312 168.867188 C 541.117188 168.871094 540.125 168.285156 538.996094 167.566406 C 537.863281 166.847656 536.875 166.257812 536.796875 166.257812 C 536.714844 166.257812 534.957031 168.90625 532.878906 172.144531 C 530.808594 175.382812 529.007812 178.144531 528.882812 178.28125 C 528.703125 178.476562 528.242188 178.242188 526.789062 177.214844 C 525.769531 176.492188 524.863281 175.941406 524.785156 175.992188 C 524.703125 176.042969 522.734375 178.808594 520.410156 182.136719 C 518.085938 185.46875 516.132812 188.191406 516.070312 188.191406 C 516.011719 188.195312 515.25 187.648438 514.378906 186.984375 C 513.507812 186.316406 512.734375 185.835938 512.65625 185.925781 C 512.582031 186.011719 510.457031 188.777344 507.9375 192.070312 C 505.417969 195.363281 503.296875 198.058594 503.222656 198.058594 C 503.144531 198.058594 502.546875 197.605469 501.890625 197.050781 C 501.238281 196.5 500.648438 196.046875 500.582031 196.046875 C 500.519531 196.046875 498.355469 198.53125 495.777344 201.570312 C 493.203125 204.609375 490.960938 207.203125 490.796875 207.339844 C 490.554688 207.539062 490.34375 207.425781 489.597656 206.695312 L 488.695312 205.808594 L 486.734375 207.820312 C 485.65625 208.925781 483.175781 211.507812 481.222656 213.554688 L 477.667969 217.277344 L 477.066406 216.574219 L 476.46875 215.871094 L 475.796875 216.488281 C 475.425781 216.824219 473.269531 218.8125 471 220.902344 C 468.730469 222.988281 466.445312 225.109375 465.917969 225.609375 C 465.171875 226.320312 464.910156 226.464844 464.722656 226.277344 C 464.585938 226.144531 464.417969 226.035156 464.34375 226.035156 C 464.269531 226.035156 461.574219 228.140625 458.355469 230.714844 C 454.675781 233.65625 452.332031 235.398438 452.042969 235.40625 C 451.777344 235.414062 446.058594 239.152344 438.746094 244.105469 C 431.6875 248.882812 425.074219 253.277344 424.050781 253.875 C 423.03125 254.46875 417.453125 257.566406 411.660156 260.753906 L 401.128906 266.550781 L 388.925781 271.761719 L 376.726562 276.96875 L 364.84375 280.59375 L 352.957031 284.21875 L 341.988281 286.226562 C 335.957031 287.328125 330.613281 288.320312 330.117188 288.425781 C 329.617188 288.535156 323.277344 288.992188 316.027344 289.445312 L 302.851562 290.308594 L 292.085938 289.675781 L 281.316406 289.039062 L 276.789062 288.25 C 274.300781 287.8125 268.582031 286.789062 264.085938 285.96875 L 255.910156 284.476562 L 231.691406 277.171875 L 219.980469 272.230469 C 213.542969 269.511719 207.636719 266.96875 206.859375 266.578125 C 206.082031 266.1875 200.507812 263.191406 194.476562 259.933594 C 188.441406 256.667969 183.1875 253.8125 182.800781 253.589844 C 182.414062 253.359375 176.800781 249.6875 170.324219 245.421875 C 163.847656 241.160156 158.234375 237.4375 157.847656 237.152344 C 157.460938 236.867188 153.910156 234.117188 149.953125 231.042969 C 143.628906 226.128906 142.714844 225.484375 142.378906 225.691406 C 142.046875 225.902344 141.34375 225.335938 136.222656 220.738281 L 130.441406 215.550781 L 129.796875 216.179688 L 129.144531 216.808594 L 117.902344 205.542969 L 116.933594 206.496094 C 116.328125 207.09375 115.910156 207.367188 115.820312 207.230469 C 115.742188 207.109375 113.460938 204.503906 110.753906 201.441406 C 108.046875 198.382812 105.769531 195.878906 105.6875 195.878906 C 105.609375 195.878906 105.050781 196.332031 104.445312 196.882812 C 103.839844 197.4375 103.265625 197.890625 103.164062 197.890625 C 103.066406 197.890625 100.816406 195.179688 98.160156 191.863281 C 95.507812 188.550781 93.292969 185.832031 93.238281 185.828125 C 93.183594 185.824219 92.457031 186.359375 91.628906 187.023438 C 90.796875 187.683594 90.058594 188.207031 89.988281 188.175781 C 89.917969 188.152344 87.847656 185.386719 85.394531 182.035156 C 82.480469 178.058594 80.851562 175.996094 80.695312 176.089844 C 80.5625 176.171875 79.738281 176.761719 78.859375 177.402344 C 77.984375 178.042969 77.195312 178.570312 77.113281 178.570312 C 77.027344 178.570312 75.089844 175.808594 72.8125 172.433594 L 68.667969 166.292969 L 66.566406 167.703125 C 65.414062 168.476562 64.398438 169.105469 64.3125 169.105469 C 64.226562 169.101562 62.347656 166.203125 60.144531 162.667969 L 56.136719 156.242188 L 55.417969 156.683594 C 55.023438 156.925781 53.933594 157.605469 53 158.183594 C 52.070312 158.769531 51.285156 159.226562 51.257812 159.199219 C 51.230469 159.171875 49.566406 156.34375 47.554688 152.914062 C 45.546875 149.480469 43.832031 146.601562 43.746094 146.515625 C 43.660156 146.425781 42.648438 146.910156 41.496094 147.589844 C 40.34375 148.273438 39.164062 148.953125 38.867188 149.101562 L 38.335938 149.378906 L 34.867188 143.039062 C 32.960938 139.554688 31.34375 136.671875 31.273438 136.628906 C 31.207031 136.589844 29.945312 137.226562 28.476562 138.042969 C 27.007812 138.859375 25.738281 139.527344 25.660156 139.527344 C 25.578125 139.527344 23.976562 136.542969 22.09375 132.890625 C 20.210938 129.238281 18.582031 126.253906 18.46875 126.253906 Z M 548.183594 184.355469 C 548.238281 184.355469 548.144531 184.628906 547.972656 184.960938 C 547.800781 185.292969 547.613281 185.566406 547.558594 185.566406 C 547.503906 185.566406 547.597656 185.292969 547.769531 184.960938 C 547.941406 184.628906 548.128906 184.355469 548.183594 184.355469 Z M 59.292969 187.375 C 59.347656 187.375 59.535156 187.648438 59.707031 187.980469 C 59.875 188.3125 59.972656 188.582031 59.917969 188.582031 C 59.863281 188.582031 59.675781 188.3125 59.503906 187.980469 C 59.332031 187.648438 59.234375 187.375 59.292969 187.375 Z M 511.550781 218.773438 C 511.609375 218.773438 511.554688 218.953125 511.4375 219.175781 C 511.316406 219.398438 511.175781 219.578125 511.121094 219.578125 C 511.0625 219.578125 511.117188 219.398438 511.234375 219.175781 C 511.355469 218.953125 511.496094 218.773438 511.550781 218.773438 Z M 152.828125 260.03125 C 152.882812 260.03125 153.09375 260.210938 153.292969 260.433594 C 153.496094 260.65625 153.613281 260.835938 153.558594 260.835938 C 153.5 260.835938 153.292969 260.65625 153.09375 260.433594 C 152.890625 260.210938 152.773438 260.03125 152.828125 260.03125 Z M 211.636719 288.207031 C 211.679688 288.207031 211.835938 288.367188 211.988281 288.558594 L 212.265625 288.914062 L 211.910156 288.636719 C 211.71875 288.484375 211.558594 288.328125 211.558594 288.285156 C 211.558594 288.242188 211.59375 288.207031 211.636719 288.207031 Z M 213.941406 290.050781 C 214.863281 290.746094 215.65625 291.378906 215.703125 291.457031 C 215.753906 291.535156 215.722656 291.644531 215.636719 291.699219 C 215.550781 291.75 214.757812 291.117188 213.871094 290.289062 L 212.265625 288.78125 Z M 380.089844 292.835938 L 380.667969 292.835938 L 379.410156 293.84375 C 378.460938 294.605469 377.984375 294.847656 377.472656 294.847656 C 377.101562 294.847656 376.792969 294.804688 376.792969 294.753906 C 376.792969 294.699219 377.40625 294.246094 378.152344 293.746094 C 378.980469 293.191406 379.734375 292.835938 380.089844 292.835938 Z M 254.027344 300.492188 C 254.191406 300.492188 254.871094 300.804688 255.535156 301.183594 C 256.320312 301.636719 256.597656 301.882812 256.332031 301.886719 C 256.105469 301.890625 255.425781 301.578125 254.820312 301.195312 C 254.21875 300.808594 253.859375 300.496094 254.027344 300.492188 Z M 354.554688 300.691406 C 354.824219 300.6875 354.613281 300.914062 353.898438 301.398438 C 353.164062 301.890625 352.746094 302.058594 352.53125 301.941406 C 352.296875 301.808594 352.445312 301.648438 353.191406 301.230469 C 353.722656 300.9375 354.332031 300.695312 354.554688 300.691406 Z M 241.042969 301.304688 C 241.667969 301.304688 242.214844 301.5625 243.734375 302.5625 L 245.640625 303.820312 L 245.054688 303.949219 C 244.730469 304.019531 244.316406 304.085938 244.136719 304.097656 C 243.957031 304.113281 243.097656 303.574219 242.226562 302.902344 C 241.355469 302.230469 240.550781 301.59375 240.449219 301.492188 C 240.328125 301.375 240.554688 301.304688 241.042969 301.304688 Z M 368.089844 301.519531 C 368.894531 301.515625 369.542969 301.574219 369.539062 301.65625 C 369.535156 301.738281 368.769531 302.40625 367.839844 303.136719 L 366.148438 304.46875 L 364.820312 304.214844 C 364.085938 304.078125 363.449219 303.925781 363.398438 303.875 C 363.347656 303.824219 364.054688 303.277344 364.96875 302.65625 L 366.628906 301.53125 Z M 278.929688 305.132812 C 279.234375 305.132812 279.9375 305.347656 280.488281 305.605469 L 281.496094 306.074219 L 280.878906 306.210938 C 280.414062 306.320312 280.039062 306.222656 279.320312 305.824219 C 278.800781 305.535156 278.375 305.257812 278.375 305.210938 C 278.375 305.167969 278.625 305.132812 278.929688 305.132812 Z M 329.398438 305.164062 C 329.507812 305.167969 329.828125 305.234375 330.101562 305.316406 L 330.605469 305.46875 L 329.664062 305.933594 C 328.882812 306.324219 328.605469 306.367188 328.054688 306.207031 L 327.386719 306.007812 L 328.289062 305.585938 C 328.789062 305.351562 329.285156 305.164062 329.398438 305.164062 Z M 304.261719 306.757812 C 304.492188 306.75 304.980469 306.84375 305.34375 306.96875 L 306.003906 307.199219 L 305.523438 307.464844 C 305.261719 307.609375 304.835938 307.734375 304.582031 307.738281 C 304.328125 307.742188 303.828125 307.59375 303.476562 307.40625 L 302.832031 307.070312 L 303.335938 306.925781 C 303.613281 306.84375 304.027344 306.769531 304.261719 306.757812 Z M 266.65625 307.371094 C 266.796875 307.355469 267.6875 307.761719 268.632812 308.273438 C 269.582031 308.789062 270.28125 309.277344 270.191406 309.371094 C 270.101562 309.460938 269.621094 309.640625 269.121094 309.773438 L 268.214844 310.015625 L 266.640625 309.003906 C 265.773438 308.449219 265.070312 307.914062 265.074219 307.816406 C 265.078125 307.722656 265.378906 307.589844 265.742188 307.519531 C 266.105469 307.453125 266.519531 307.382812 266.65625 307.367188 Z M 342.378906 307.582031 C 342.769531 307.59375 343.355469 307.648438 343.683594 307.71875 L 344.28125 307.847656 L 343.28125 308.566406 C 342.730469 308.964844 341.996094 309.480469 341.652344 309.714844 L 341.03125 310.148438 L 339.886719 309.824219 C 339.257812 309.644531 338.773438 309.417969 338.804688 309.316406 C 338.835938 309.21875 339.496094 308.785156 340.269531 308.355469 C 341.175781 307.851562 341.925781 307.578125 342.378906 307.582031 Z M 254.855469 309.9375 C 255.144531 310.117188 256.210938 310.804688 257.21875 311.46875 C 258.226562 312.132812 259.054688 312.722656 259.054688 312.777344 C 259.054688 312.832031 258.40625 313.074219 257.617188 313.316406 L 256.175781 313.753906 L 253.882812 311.964844 C 251.878906 310.398438 251.648438 310.160156 252.054688 310.0625 C 252.308594 310 252.925781 309.875 253.425781 309.785156 C 254.121094 309.65625 254.449219 309.695312 254.855469 309.941406 Z M 354.546875 309.78125 C 354.652344 309.769531 355.578125 309.910156 356.609375 310.09375 C 357.640625 310.277344 358.480469 310.480469 358.472656 310.546875 C 358.464844 310.613281 357.507812 311.421875 356.339844 312.34375 C 354.4375 313.855469 354.15625 314.011719 353.585938 313.898438 C 353.234375 313.832031 352.273438 313.566406 351.449219 313.316406 L 349.949219 312.851562 L 352.152344 311.324219 C 353.363281 310.488281 354.441406 309.789062 354.546875 309.78125 Z M 293.363281 311.011719 C 294.144531 311.339844 294.859375 311.679688 294.945312 311.761719 C 295.035156 311.847656 294.539062 312.15625 293.839844 312.453125 L 292.570312 312.988281 L 290.996094 312.160156 C 290.128906 311.703125 289.464844 311.285156 289.519531 311.230469 C 289.574219 311.175781 290.140625 310.972656 290.78125 310.773438 L 291.945312 310.414062 Z M 316.875 310.578125 C 317.070312 310.570312 317.769531 310.714844 318.4375 310.898438 C 319.097656 311.082031 319.640625 311.296875 319.640625 311.375 C 319.640625 311.457031 319 311.855469 318.222656 312.265625 L 316.808594 313.007812 L 315.40625 312.460938 C 314.632812 312.15625 314.003906 311.855469 314.007812 311.789062 C 314.007812 311.726562 314.570312 311.429688 315.265625 311.132812 C 315.953125 310.839844 316.679688 310.589844 316.875 310.578125 Z M 279.433594 314.207031 C 279.511719 314.195312 280.585938 314.742188 281.820312 315.421875 L 284.0625 316.65625 L 282.292969 317.414062 L 280.519531 318.167969 L 278.394531 316.753906 C 277.226562 315.972656 276.238281 315.3125 276.199219 315.277344 C 276.164062 315.25 276.84375 315 277.710938 314.726562 C 278.578125 314.453125 279.351562 314.21875 279.433594 314.207031 Z M 329.703125 314.394531 C 329.871094 314.394531 330.597656 314.574219 331.316406 314.796875 C 332.035156 315.019531 332.753906 315.25 332.914062 315.304688 C 333.09375 315.371094 332.421875 315.929688 331.125 316.796875 L 329.042969 318.179688 L 328.015625 317.769531 C 327.449219 317.539062 326.648438 317.214844 326.234375 317.046875 C 325.816406 316.878906 325.476562 316.6875 325.480469 316.621094 C 325.480469 316.554688 326.363281 316.027344 327.441406 315.449219 C 328.519531 314.871094 329.539062 314.394531 329.703125 314.394531 Z M 304.488281 315.816406 C 304.617188 315.808594 305.5625 316.160156 306.582031 316.601562 C 307.601562 317.042969 308.472656 317.441406 308.511719 317.484375 C 308.558594 317.527344 307.757812 318.027344 306.734375 318.597656 L 304.875 319.628906 L 303.46875 318.894531 C 302.695312 318.488281 301.808594 318.007812 301.496094 317.832031 C 301.183594 317.652344 300.925781 317.457031 300.925781 317.398438 C 300.925781 317.339844 301.671875 316.964844 302.585938 316.5625 C 303.5 316.164062 304.351562 315.828125 304.488281 315.816406 Z M 266.949219 318.027344 C 267.027344 318.015625 268.316406 318.808594 269.820312 319.789062 L 272.554688 321.566406 L 270.585938 322.402344 C 269.507812 322.867188 268.566406 323.242188 268.496094 323.242188 C 268.425781 323.242188 267.289062 322.40625 265.96875 321.382812 C 264.652344 320.355469 263.53125 319.429688 263.480469 319.324219 C 263.429688 319.21875 264.160156 318.882812 265.097656 318.585938 C 266.042969 318.285156 266.871094 318.035156 266.949219 318.027344 Z M 342.203125 318.207031 C 342.371094 318.199219 343.523438 318.492188 344.769531 318.851562 C 346.015625 319.214844 347.03125 319.570312 347.035156 319.640625 C 347.035156 319.714844 345.941406 320.652344 344.601562 321.726562 L 342.167969 323.679688 L 341.242188 323.324219 C 340.734375 323.132812 339.671875 322.691406 338.882812 322.347656 C 338.097656 322.007812 337.425781 321.648438 337.398438 321.550781 C 337.363281 321.453125 338.367188 320.664062 339.621094 319.796875 C 340.875 318.933594 342.039062 318.214844 342.203125 318.207031 Z M 294.707031 322.375 C 296.089844 323.101562 297.246094 323.71875 297.28125 323.742188 C 297.308594 323.769531 296.324219 324.347656 295.089844 325.03125 L 292.839844 326.277344 L 290.347656 324.625 C 288.976562 323.71875 287.882812 322.949219 287.914062 322.914062 C 287.949219 322.882812 288.921875 322.449219 290.082031 321.953125 L 292.191406 321.050781 Z M 317.246094 321.226562 C 317.414062 321.222656 318.476562 321.605469 319.609375 322.074219 C 320.742188 322.546875 321.671875 322.992188 321.671875 323.058594 C 321.675781 323.128906 320.648438 323.882812 319.398438 324.734375 L 317.121094 326.28125 L 314.792969 325.011719 L 312.460938 323.738281 L 314.703125 322.484375 C 315.9375 321.796875 317.082031 321.230469 317.246094 321.226562 Z M 279.726562 326.464844 C 279.847656 326.460938 281.238281 327.300781 282.816406 328.335938 L 285.683594 330.21875 L 283.246094 331.566406 L 280.8125 332.910156 L 278.007812 330.738281 C 276.464844 329.546875 275.195312 328.515625 275.191406 328.449219 C 275.1875 328.382812 276.15625 327.914062 277.347656 327.402344 C 278.535156 326.890625 279.609375 326.46875 279.726562 326.464844 Z M 330.125 326.5625 C 330.292969 326.621094 331.582031 327.140625 332.988281 327.71875 C 334.398438 328.296875 335.53125 328.828125 335.503906 328.902344 C 335.480469 328.976562 334.257812 329.996094 332.789062 331.175781 L 330.121094 333.3125 L 327.203125 331.726562 L 324.289062 330.140625 L 327.054688 328.296875 C 328.640625 327.246094 329.953125 326.5 330.125 326.5625 Z M 306.972656 329.023438 C 308.128906 329.640625 309.328125 330.292969 309.636719 330.464844 C 309.949219 330.640625 310.199219 330.828125 310.195312 330.886719 C 310.195312 330.9375 309.097656 331.710938 307.757812 332.59375 C 306.414062 333.480469 305.25 334.234375 305.160156 334.269531 C 305.074219 334.300781 303.816406 333.539062 302.367188 332.574219 C 300.917969 331.609375 299.773438 330.78125 299.824219 330.730469 C 299.871094 330.679688 301.027344 330.023438 302.390625 329.269531 L 304.867188 327.902344 Z M 292.445312 334.726562 C 292.472656 334.71875 293.863281 335.621094 295.527344 336.734375 L 298.554688 338.757812 L 297.789062 339.3125 C 297.363281 339.617188 296.171875 340.4375 295.136719 341.132812 C 293.707031 342.089844 293.164062 342.355469 292.890625 342.226562 C 292.691406 342.132812 291.308594 341.101562 289.8125 339.941406 C 288.320312 338.777344 287.140625 337.78125 287.1875 337.726562 C 287.238281 337.671875 288.429688 336.980469 289.835938 336.1875 C 291.242188 335.394531 292.414062 334.738281 292.445312 334.726562 Z M 318.746094 335.394531 C 319.414062 335.761719 320.847656 336.539062 321.925781 337.117188 C 323.003906 337.691406 323.886719 338.191406 323.886719 338.226562 C 323.886719 338.261719 322.574219 339.339844 320.972656 340.628906 L 318.054688 342.964844 L 314.9375 340.898438 C 313.222656 339.765625 311.84375 338.769531 311.867188 338.695312 C 311.890625 338.613281 313.175781 337.6875 314.722656 336.636719 L 317.527344 334.722656 Z M 305.304688 343.25 C 305.441406 343.300781 306.9375 344.265625 308.632812 345.390625 C 310.324219 346.515625 311.789062 347.507812 311.882812 347.59375 C 311.976562 347.679688 310.722656 348.816406 309.09375 350.121094 L 306.136719 352.492188 L 305.707031 352.222656 C 305.464844 352.074219 303.933594 350.914062 302.300781 349.644531 C 300.667969 348.371094 299.332031 347.257812 299.332031 347.171875 C 299.332031 347.085938 300.625 346.144531 302.195312 345.085938 C 303.773438 344.023438 305.171875 343.195312 305.308594 343.25 Z M 305.304688 343.25 " fill-opacity="1" fill-rule="nonzero"/></svg>